<svg width="261" height="80" viewBox="0 0 261 80" fill="none" xmlns="http://www.w3.org/2000/svg">
<g clip-path="url(#clip0_15_86)">
<path d="M84.4945 41.668V41.0585C84.4945 39.5271 83.9706 38.355 82.9235 37.5424C81.9078 36.6985 80.5749 36.2765 78.9245 36.2765C77.6551 36.2765 76.6552 36.4953 75.9255 36.9329C75.2272 37.3392 74.5607 37.9643 73.926 38.8082C73.7355 39.0582 73.5293 39.2301 73.307 39.3239C73.0851 39.4177 72.7835 39.4645 72.4025 39.4645H70.9745C70.6253 39.4645 70.308 39.3395 70.0224 39.0895C69.7684 38.8394 69.6575 38.5425 69.689 38.1987C69.7844 37.2611 70.2444 36.339 71.0696 35.4326C71.9265 34.495 73.0533 33.7292 74.4496 33.1354C75.8461 32.5416 77.3378 32.2446 78.9245 32.2446C81.876 32.2446 84.2562 33.0573 86.0652 34.6825C87.906 36.3078 88.8265 38.5894 88.8265 41.5274V55.8265C88.8265 56.1703 88.6993 56.4674 88.4456 56.7173C88.1915 56.9672 87.8902 57.0923 87.5411 57.0923H85.7796C85.4305 57.0923 85.1292 56.9672 84.8751 56.7173C84.6213 56.4674 84.4945 56.1703 84.4945 55.8265V53.9043C83.9867 55.0295 82.9074 55.9204 81.2571 56.5768C79.6068 57.2332 77.9564 57.5612 76.3061 57.5612C74.6876 57.5612 73.2437 57.2798 71.9741 56.7173C70.7047 56.1233 69.7208 55.3264 69.0225 54.3262C68.356 53.326 68.0229 52.201 68.0229 50.9507C68.0229 48.6065 68.9117 46.7782 70.6889 45.4654C72.4661 44.1214 74.8305 43.2151 77.782 42.7463L84.4945 41.668ZM84.4945 45.4188L78.877 46.3093C76.8139 46.6219 75.2114 47.1377 74.0689 47.8565C72.9264 48.5441 72.355 49.4192 72.355 50.4821C72.355 51.2633 72.7199 51.9666 73.45 52.5918C74.1798 53.2167 75.2908 53.5293 76.7824 53.5293C79.0675 53.5293 80.924 52.8886 82.3521 51.6071C83.7801 50.3258 84.4945 48.6535 84.4945 46.5907V45.4188Z" fill="white"/>
<path d="M100.104 55.8264C100.104 56.1702 99.9771 56.4673 99.7231 56.7172C99.4693 56.9671 99.1677 57.0922 98.8186 57.0922H97.0574C96.7083 57.0922 96.4067 56.9671 96.1529 56.7172C95.8989 56.4673 95.772 56.1702 95.772 55.8264V25.0715C95.772 24.7277 95.8989 24.4308 96.1529 24.1807C96.4067 23.9307 96.7083 23.8057 97.0574 23.8057H98.8186C99.1677 23.8057 99.4693 23.9307 99.7231 24.1807C99.9771 24.4308 100.104 24.7277 100.104 25.0715V55.8264Z" fill="white"/>
<path d="M117.252 53.5293C120.425 53.5293 122.567 52.3104 123.678 49.8723C123.9 49.4037 124.123 49.0754 124.345 48.8879C124.567 48.7004 124.869 48.6065 125.249 48.6065H126.678C127.027 48.6065 127.328 48.7316 127.582 48.9818C127.836 49.2005 127.963 49.4661 127.963 49.7787C127.963 50.8413 127.535 51.982 126.678 53.2012C125.821 54.4201 124.583 55.4515 122.964 56.2954C121.346 57.1393 119.442 57.5612 117.252 57.5612C114.998 57.5612 113.046 57.0923 111.396 56.1548C109.746 55.217 108.476 53.9358 107.588 52.3104C106.699 50.6538 106.207 48.8097 106.112 46.7782C106.08 46.4032 106.064 45.6844 106.064 44.6215C106.064 43.8715 106.08 43.3402 106.112 43.0276C106.398 39.8396 107.493 37.2454 109.397 35.2451C111.301 33.2448 113.919 32.2446 117.252 32.2446C119.442 32.2446 121.33 32.6666 122.917 33.5105C124.535 34.3231 125.757 35.3389 126.582 36.5578C127.439 37.7455 127.899 38.8707 127.963 39.9334C127.994 40.2772 127.868 40.5741 127.582 40.8241C127.328 41.0742 127.027 41.1992 126.678 41.1992H125.249C124.869 41.1992 124.567 41.1054 124.345 40.9179C124.123 40.7304 123.9 40.4022 123.678 39.9334C122.567 37.4955 120.425 36.2765 117.252 36.2765C115.506 36.2765 113.983 36.8547 112.682 38.0112C111.38 39.1676 110.635 40.9179 110.444 43.262C110.413 43.6058 110.397 44.1684 110.397 44.9499C110.397 45.6687 110.413 46.1999 110.444 46.5437C110.666 48.8879 111.412 50.6381 112.682 51.7945C113.983 52.951 115.506 53.5293 117.252 53.5293Z" fill="white"/>
<path d="M155.654 55.8264C155.654 56.1702 155.527 56.4673 155.273 56.7172C155.019 56.9671 154.718 57.0922 154.369 57.0922H152.607C152.258 57.0922 151.957 56.9671 151.703 56.7172C151.449 56.4673 151.322 56.1702 151.322 55.8264V43.4495C151.322 41.1053 150.735 39.3238 149.561 38.1048C148.386 36.8859 146.752 36.2764 144.657 36.2764C142.595 36.2764 140.96 36.8859 139.754 38.1048C138.58 39.3238 137.993 41.1053 137.993 43.4495V55.8264C137.993 56.1702 137.866 56.4673 137.612 56.7172C137.358 56.9671 137.056 57.0922 136.707 57.0922H134.946C134.597 57.0922 134.295 56.9671 134.041 56.7172C133.788 56.4673 133.661 56.1702 133.661 55.8264V25.0715C133.661 24.7277 133.788 24.4308 134.041 24.1807C134.295 23.9307 134.597 23.8057 134.946 23.8057H136.707C137.056 23.8057 137.358 23.9307 137.612 24.1807C137.866 24.4308 137.993 24.7277 137.993 25.0715V35.4325C138.691 34.5261 139.643 33.776 140.849 33.1822C142.087 32.5571 143.594 32.2445 145.371 32.2445C147.371 32.2445 149.148 32.6665 150.703 33.5104C152.258 34.3542 153.464 35.5732 154.321 37.1672C155.21 38.7299 155.654 40.5896 155.654 42.7462V55.8264Z" fill="white"/>
<path d="M172.336 32.2446C175.732 32.2446 178.414 33.3073 180.381 35.4326C182.349 37.558 183.333 40.4491 183.333 44.106V45.3718C183.333 45.7156 183.206 46.0124 182.952 46.2626C182.698 46.5125 182.397 46.6376 182.048 46.6376H165.671V46.9187C165.735 48.9818 166.37 50.6069 167.575 51.7945C168.813 52.951 170.4 53.5293 172.336 53.5293C173.923 53.5293 175.145 53.326 176.002 52.9198C176.89 52.5136 177.684 51.9354 178.382 51.1851C178.636 50.9352 178.858 50.7632 179.048 50.6696C179.271 50.5757 179.556 50.5287 179.905 50.5287H181.333C181.714 50.5287 182.032 50.6538 182.286 50.904C182.54 51.1539 182.65 51.4508 182.619 51.7945C182.492 52.6384 182.016 53.5138 181.191 54.4201C180.397 55.2952 179.239 56.0455 177.715 56.6704C176.224 57.2644 174.431 57.5612 172.336 57.5612C170.305 57.5612 168.496 57.1081 166.909 56.2015C165.322 55.264 164.053 53.9824 163.101 52.3573C162.18 50.732 161.625 48.9036 161.434 46.8721C161.371 45.9343 161.339 45.2155 161.339 44.7154C161.339 44.2153 161.371 43.4964 161.434 42.5588C161.625 40.621 162.18 38.8707 163.101 37.3079C164.053 35.7452 165.307 34.5106 166.861 33.6042C168.448 32.6978 170.273 32.2446 172.336 32.2446ZM179.048 42.6995V42.5588C179.048 40.6522 178.43 39.1364 177.192 38.0112C175.986 36.8547 174.367 36.2765 172.336 36.2765C170.496 36.2765 168.925 36.8547 167.623 38.0112C166.354 39.1676 165.703 40.6835 165.671 42.5588V42.6995H179.048Z" fill="white"/>
<path d="M193.408 35.4326C194.17 34.4638 195.027 33.698 195.979 33.1354C196.931 32.5416 198.2 32.2446 199.787 32.2446C203.5 32.2446 206.103 33.6042 207.594 36.3234C208.515 35.0107 209.562 34.0105 210.736 33.3229C211.911 32.6041 213.45 32.2446 215.354 32.2446C218.464 32.2446 220.765 33.1667 222.257 35.0107C223.78 36.8547 224.542 39.4645 224.542 42.8401V55.8265C224.542 56.1703 224.415 56.4674 224.161 56.7173C223.907 56.9672 223.606 57.0923 223.257 57.0923H221.495C221.146 57.0923 220.845 56.9672 220.591 56.7173C220.337 56.4674 220.21 56.1703 220.21 55.8265V43.3089C220.21 38.6207 218.337 36.2765 214.592 36.2765C212.879 36.2765 211.514 36.8391 210.498 37.9643C209.483 39.0895 208.975 40.7616 208.975 42.9807V55.8265C208.975 56.1703 208.848 56.4674 208.594 56.7173C208.34 56.9672 208.039 57.0923 207.69 57.0923H205.928C205.579 57.0923 205.278 56.9672 205.024 56.7173C204.77 56.4674 204.643 56.1703 204.643 55.8265V43.3089C204.643 38.6207 202.771 36.2765 199.025 36.2765C197.312 36.2765 195.947 36.8391 194.931 37.9643C193.916 39.0895 193.408 40.7616 193.408 42.9807V55.8265C193.408 56.1703 193.281 56.4674 193.027 56.7173C192.773 56.9672 192.472 57.0923 192.123 57.0923H190.361C190.012 57.0923 189.711 56.9672 189.457 56.7173C189.203 56.4674 189.076 56.1703 189.076 55.8265V33.9793C189.076 33.6355 189.203 33.3386 189.457 33.0885C189.711 32.8385 190.012 32.7135 190.361 32.7135H192.123C192.472 32.7135 192.773 32.8385 193.027 33.0885C193.281 33.3386 193.408 33.6355 193.408 33.9793V35.4326Z" fill="white"/>
<path d="M237.875 64.8747C237.589 65.625 237.129 66 236.494 66H234.542C234.225 66 233.955 65.8906 233.733 65.6719C233.511 65.4529 233.4 65.1873 233.4 64.8747C233.4 64.7499 233.415 64.6402 233.447 64.5466L238.017 54.7481L228.591 34.1667C228.56 34.073 228.544 33.9636 228.544 33.8386C228.544 33.526 228.655 33.2603 228.877 33.0415C229.099 32.8228 229.369 32.7134 229.686 32.7134H231.638C232.273 32.7134 232.733 33.0884 233.019 33.8386L240.35 49.7786L247.776 33.8386C248.062 33.0884 248.522 32.7134 249.157 32.7134H251.109C251.426 32.7134 251.696 32.8228 251.918 33.0415C252.14 33.2603 252.251 33.526 252.251 33.8386C252.251 33.9636 252.235 34.073 252.204 34.1667L237.875 64.8747Z" fill="white"/>
<path d="M50.0238 41.5827L34.0388 14.4442C33.9614 14.3102 33.8493 14.1985 33.7138 14.1206C33.5784 14.0426 33.4243 14.001 33.2672 14C33.1101 13.999 32.9556 14.0387 32.8191 14.115C32.6826 14.1912 32.5692 14.3015 32.49 14.4345L27.7027 22.5664C27.5459 22.8325 27.4634 23.1345 27.4634 23.4419C27.4634 23.7492 27.5459 24.0512 27.7027 24.3174L38.1259 42.0217C38.2828 42.2882 38.5086 42.5094 38.7805 42.6631C39.0524 42.8168 39.3608 42.8975 39.6746 42.8972H49.2494C49.406 42.8968 49.56 42.856 49.6955 42.779C49.8313 42.702 49.9439 42.5914 50.0223 42.4583C50.1005 42.3253 50.1421 42.1744 50.1424 42.0207C50.1424 41.8671 50.1017 41.7161 50.0238 41.5827Z" fill="white"/>
<path d="M8.12326 55.7665L24.1082 28.6279C24.1866 28.4949 24.2994 28.3845 24.4351 28.3078C24.5708 28.2311 24.7246 28.1907 24.8813 28.1907C25.038 28.1907 25.1919 28.2311 25.3276 28.3078C25.4633 28.3845 25.576 28.4949 25.6544 28.6279L30.4443 36.7525C30.601 37.0191 30.6835 37.3214 30.6835 37.6292C30.6835 37.9369 30.601 38.2393 30.4443 38.5059L20.021 56.2104C19.8647 56.4766 19.6394 56.698 19.3679 56.8516C19.0964 57.0052 18.7883 57.0861 18.4747 57.0858H8.89764C8.73988 57.0867 8.58472 57.0462 8.44795 56.9693C8.31118 56.892 8.19768 56.7809 8.119 56.6469C8.04032 56.5129 7.99926 56.3607 8.00001 56.2062C8.00076 56.0514 8.04328 55.8999 8.12326 55.7665Z" fill="white"/>
<path d="M25.652 57.0797H57.6218C57.7787 57.0797 57.9327 57.039 58.0684 56.962C58.2042 56.885 58.3169 56.7742 58.395 56.6411C58.4732 56.508 58.5145 56.3567 58.5142 56.2031C58.5139 56.0492 58.4726 55.8982 58.3938 55.7654L53.6113 47.6359C53.4544 47.3693 53.2286 47.1483 52.9567 46.9946C52.6848 46.8407 52.3764 46.7602 52.0626 46.7605H31.2162C30.9023 46.7602 30.594 46.8407 30.3221 46.9946C30.0502 47.1483 29.8244 47.3693 29.6674 47.6359L24.8802 55.7654C24.8015 55.8982 24.76 56.0492 24.7598 56.2031C24.7596 56.3567 24.8006 56.508 24.8788 56.6411C24.9571 56.7742 25.0697 56.885 25.2055 56.962C25.3412 57.039 25.4952 57.0797 25.652 57.0797Z" fill="white"/>
</g>
<defs>
<clipPath id="clip0_15_86">
<rect width="244.251" height="52" fill="white" transform="translate(8 14)"/>
</clipPath>
</defs>
</svg>
