<svg width="306" height="80" viewBox="0 0 306 80" fill="none" xmlns="http://www.w3.org/2000/svg">
<path d="M129.661 23.0911C127.608 23.0911 125.921 24.7772 125.921 26.8736C125.921 28.97 127.609 30.5643 129.661 30.5643C131.713 30.5643 133.401 28.8782 133.401 26.8736C133.401 24.8691 131.758 23.0911 129.661 23.0911Z" fill="#FF4E17"/>
<path d="M132.717 32.8813H126.65V55.2988H132.717V32.8813Z" fill="#FF4E17"/>
<path d="M197.029 32.2888C194.612 32.2888 191.921 33.337 190.552 35.6612V32.8815H184.668V55.2989H190.735V42.4046C190.735 39.8074 192.285 37.7575 194.931 37.7575C197.849 37.7575 199.081 39.7168 199.081 42.2222V55.2989H205.148V41.174C205.148 36.2538 202.593 32.2888 197.029 32.2888Z" fill="#FF4E17"/>
<path d="M219.23 32.198C212.525 32.198 207.462 37.1647 207.462 44.0894C207.462 51.0142 212.525 55.982 219.23 55.982C225.935 55.982 230.998 50.97 230.998 44.0894C230.998 37.2088 225.935 32.198 219.23 32.198ZM219.23 50.4692C216.265 50.4692 213.529 48.2822 213.529 44.0906C213.529 39.899 216.265 37.712 219.23 37.712C222.195 37.712 224.931 39.8537 224.931 44.0906C224.931 48.3275 222.195 50.4692 219.23 50.4692Z" fill="#FF4E17"/>
<path d="M259.1 32.2434C256.135 32.2434 253.764 33.2463 251.984 35.9795C250.844 33.5647 248.38 32.2434 245.325 32.2434C242.862 32.2434 239.989 33.4275 238.757 35.6146V32.8814H232.964V55.2988H239.031V42.1768C239.031 39.7167 240.581 37.7574 243.227 37.7574C245.872 37.7574 247.195 39.5796 247.195 41.9955V55.3H253.216V42.178C253.216 39.7632 254.767 37.7586 257.367 37.7586C260.149 37.7586 261.335 39.5807 261.335 41.9967V55.3012H267.219V40.7673C267.219 34.7524 263.251 32.247 259.1 32.247V32.2434Z" fill="#FF4E17"/>
<path d="M285.516 32.8813L279.997 46.0034L274.023 32.8813H267.227L276.759 52.4726L271.468 64.1375H277.9L291.993 32.8813H285.516Z" fill="#FF4E17"/>
<path d="M146.786 50.468C143.82 50.468 141.084 48.281 141.084 44.0894C141.084 39.8979 143.822 37.7108 146.786 37.7108C148.625 37.7108 150.249 38.5372 151.217 40.1769L156.939 38.3023C155.098 34.5627 151.411 32.198 146.786 32.198C140.08 32.198 135.018 37.1647 135.018 44.0894C135.018 51.0142 140.08 55.982 146.786 55.982C152.358 55.982 156.565 52.5179 157.827 47.3986H151.526C150.624 49.4389 148.84 50.4692 146.786 50.4692V50.468Z" fill="#FF4E17"/>
<path d="M170.601 32.198C163.896 32.198 158.833 37.1647 158.833 44.0894C158.833 51.0142 163.896 55.982 170.601 55.982C177.306 55.982 182.369 50.97 182.369 44.0894C182.369 37.2088 177.306 32.198 170.601 32.198ZM170.601 50.4692C167.636 50.4692 164.9 48.2822 164.9 44.0906C164.9 39.899 167.637 37.712 170.601 37.712C173.565 37.712 176.302 39.8537 176.302 44.0906C176.302 48.3275 173.565 50.4692 170.601 50.4692Z" fill="#FF4E17"/>
<path d="M118.649 35.6659C119.893 34.019 120.152 32.4378 120.152 30.5465C120.152 28.6553 118.428 22.991 112.147 22.991H97.7344V55.2774H113.302C121.057 55.2774 124.33 49.9124 124.33 44.2505C124.33 41.6545 123.247 38.2845 118.648 35.6647L118.649 35.6659ZM103.821 27.9457H111.162C112.851 27.9457 114.219 29.3135 114.219 30.9997C114.219 32.687 112.85 34.0536 111.162 34.0536H103.821V27.9445V27.9457ZM112.583 50.3226H103.821V39.0096H112.583C115.711 39.0096 118.245 41.5424 118.245 44.6655C118.245 48.1285 115.992 50.3214 112.583 50.3214V50.3226Z" fill="#FF4E17"/>
<path d="M55.3734 33.4562C56.3404 31.5005 57.0148 29.0476 57.0148 25.9948C57.0148 21.8068 55.3388 18.0159 52.2947 15.3197C49.2912 12.6593 45.2277 11.2533 40.5434 11.2533L24.4015 11.1782C21.2858 11.1782 18.7598 13.7015 18.7598 16.8139V64.605H46.998C57.5425 64.605 63.7058 55.8188 63.7058 47.8935C63.7058 41.8727 60.3597 36.3634 55.3746 33.4562H55.3734ZM40.5422 15.3746C48.1202 15.3746 52.8892 19.912 52.8892 25.9948C52.8892 34.1585 46.7306 37.8922 40.4992 37.8922C34.6451 37.8922 29.8235 33.0758 29.8235 25.6108V21.4896C29.8235 18.7839 28.2036 16.3548 25.6967 15.5546V15.3746H40.541H40.5422Z" fill="#FF4E17"/>
</svg>
