<svg width="261" height="80" viewBox="0 0 261 80" fill="none" xmlns="http://www.w3.org/2000/svg">
<g clip-path="url(#clip0_31_237)">
<mask id="mask0_31_237" style="mask-type:luminance" maskUnits="userSpaceOnUse" x="4" y="8" width="253" height="64">
<path d="M256.645 8.01966H4.19019V71.9803H256.645V8.01966Z" fill="white"/>
</mask>
<g mask="url(#mask0_31_237)">
<path d="M31.8852 8.01966L4.19019 24.0098V55.9902L31.8852 71.9803L59.5803 55.9902V24.0098L31.8852 8.01966ZM47.8472 49.2129L31.8903 58.4259L15.9334 49.2129V30.7871L31.8903 21.5742L47.8472 30.7871V49.2129Z" fill="#0847F7"/>
<path d="M89.9663 56.0233C87.216 56.0233 84.7523 55.394 82.5829 54.1276C80.4106 52.8637 78.6964 51.0396 77.4404 48.65C76.1844 46.2604 75.5576 43.3847 75.5576 40.0204C75.5576 36.6561 76.192 33.7344 77.4532 31.3371C78.7173 28.9424 80.4362 27.1157 82.616 25.8595C84.7935 24.6033 87.2444 23.9765 89.9691 23.9765C91.7397 23.9765 93.3922 24.2298 94.9121 24.7313C96.4344 25.2327 97.7875 25.9619 98.9748 26.9187C100.162 27.8756 101.126 29.0448 101.876 30.4263C102.623 31.8079 103.107 33.3787 103.332 35.1415H97.1531C97.0124 34.2486 96.7414 33.4504 96.3368 32.7417C95.9303 32.0381 95.4186 31.4369 94.7994 30.9406C94.1778 30.4442 93.4713 30.0681 92.6863 29.8097C91.8955 29.5513 91.0361 29.4234 90.0994 29.4234C88.4521 29.4234 87.0014 29.8353 85.7425 30.6591C84.4865 31.4829 83.5039 32.6828 82.8003 34.2614C82.0944 35.8374 81.741 37.7613 81.741 40.0204C81.741 42.2795 82.0968 44.2418 82.8079 45.8127C83.5219 47.3836 84.4993 48.5681 85.7501 49.3715C87.0014 50.1748 88.444 50.5765 90.0738 50.5765C90.9821 50.5765 91.8264 50.4537 92.6067 50.2081C93.387 49.965 94.0906 49.6068 94.7122 49.1386C95.3314 48.673 95.8535 48.0999 96.2728 47.4219C96.6926 46.744 96.9868 45.9662 97.1531 45.0887H103.332C103.15 46.5521 102.715 47.9439 102.025 49.2563C101.334 50.5663 100.413 51.7303 99.2586 52.7409C98.1073 53.7541 96.7513 54.5497 95.1959 55.1407C93.6376 55.7267 91.8955 56.021 89.9715 56.021V56.0285L89.9663 56.0233Z" fill="#0847F7"/>
<path d="M112.629 41.9776V55.5912H106.64V24.3833H112.463V36.257H112.757C113.299 34.9036 114.154 33.8341 115.313 33.0513C116.469 32.2709 117.946 31.8769 119.731 31.8769C121.351 31.8769 122.771 32.2249 123.981 32.9233C125.196 33.6218 126.14 34.6273 126.808 35.9397C127.478 37.2496 127.811 38.8384 127.811 40.6958V55.586H121.798V41.7013C121.798 40.1918 121.415 39.0175 120.647 38.1707C119.88 37.3264 118.795 36.9043 117.401 36.9043C116.464 36.9043 115.64 37.1064 114.929 37.5132C114.215 37.92 113.655 38.4956 113.243 39.2401C112.831 39.9897 112.626 40.8954 112.626 41.9751V41.9802L112.629 41.9776Z" fill="#0847F7"/>
<path d="M138.457 56.0541C136.962 56.0541 135.627 55.7879 134.447 55.2584C133.268 54.7262 132.339 53.9408 131.661 52.9021C130.983 51.8634 130.645 50.5739 130.645 49.0389C130.645 47.729 130.886 46.6365 131.37 45.7692C131.853 44.9019 132.508 44.2035 133.34 43.6662C134.171 43.1289 135.11 42.7222 136.167 42.4509C137.22 42.1797 138.329 41.9878 139.485 41.8753C140.854 41.7346 141.956 41.6067 142.795 41.489C143.634 41.3713 144.243 41.1819 144.627 40.9235C145.011 40.6651 145.203 40.2839 145.203 39.7825V39.6776C145.203 38.6286 144.881 37.815 144.241 37.2368C143.599 36.6586 142.683 36.367 141.496 36.367C140.239 36.367 139.242 36.6407 138.5 37.1959C137.761 37.746 137.267 38.4137 137.013 39.194L131.441 38.5852C131.789 37.1627 132.424 35.95 133.337 34.9522C134.25 33.9544 135.399 33.192 136.781 32.6675C138.162 32.143 139.733 31.8795 141.493 31.8795C142.708 31.8795 143.893 32.0228 145.044 32.3094C146.196 32.5933 147.234 33.0487 148.166 33.673C149.092 34.2947 149.836 35.1159 150.384 36.1342C150.934 37.155 151.213 38.3959 151.213 39.8643V55.5912H145.477V52.3444H145.31C144.945 53.0402 144.461 53.6722 143.844 54.2325C143.23 54.7928 142.476 55.2328 141.583 55.5628C140.69 55.893 139.649 56.0565 138.462 56.0565H138.454L138.457 56.0541ZM140.086 51.7815C141.12 51.7815 142.02 51.5768 142.788 51.1649C143.555 50.753 144.157 50.203 144.589 49.5122C145.021 48.8214 145.239 48.0564 145.239 47.2199V44.6C145.044 44.7407 144.755 44.8661 144.382 44.9787C144.003 45.0913 143.579 45.1936 143.102 45.2831C142.629 45.3726 142.158 45.452 141.698 45.5236C141.237 45.5927 140.825 45.649 140.462 45.6899C139.667 45.8025 138.965 45.9841 138.357 46.2323C137.748 46.4856 137.269 46.8258 136.921 47.2582C136.573 47.6906 136.397 48.2355 136.397 48.893C136.397 49.8422 136.742 50.5611 137.433 51.0524C138.124 51.541 139.007 51.7841 140.081 51.7841H140.083L140.086 51.7815Z" fill="#0847F7"/>
<path d="M155.147 55.5936V32.1789H161.137V55.5936H155.147Z" fill="#0847F7"/>
<path d="M171.066 41.9776V55.5912H165.077V32.1738H170.962V36.257H171.215C171.744 34.9164 172.586 33.852 173.737 33.0615C174.889 32.2709 176.337 31.8795 178.084 31.8795C179.703 31.8795 181.118 32.2274 182.323 32.9259C183.531 33.6218 184.467 34.6324 185.132 35.95C185.795 37.2701 186.128 38.8512 186.128 40.6933V55.5832H180.138V41.6987C180.138 40.2046 179.752 39.0303 178.977 38.1809C178.204 37.3315 177.137 36.9017 175.781 36.9017C174.86 36.9017 174.044 37.1038 173.341 37.5106C172.634 37.9174 172.082 38.493 171.675 39.2375C171.269 39.9872 171.069 40.8929 171.069 41.9725V41.9776H171.066Z" fill="#0847F7"/>
<path d="M196.052 22.8483V55.5936H190.062V22.8483H196.052Z" fill="#0847F7"/>
<path d="M199.989 55.5936V32.1789H205.978V55.5936H199.989Z" fill="#0847F7"/>
<path d="M215.905 41.9776V55.5912H209.916V32.1738H215.8V36.257H216.054C216.583 34.9164 217.425 33.852 218.576 33.0615C219.727 32.2709 221.175 31.8795 222.923 31.8795C224.542 31.8795 225.957 32.2274 227.165 32.9259C228.372 33.6218 229.309 34.6324 229.971 35.95C230.634 37.2701 230.966 38.8512 230.966 40.6933V55.5832H224.977V41.6987C224.977 40.2046 224.591 39.0303 223.816 38.1809C223.043 37.3315 221.976 36.9017 220.62 36.9017C219.699 36.9017 218.883 37.1038 218.179 37.5106C217.474 37.9174 216.921 38.493 216.514 39.2375C216.107 39.9872 215.905 40.8929 215.905 41.9725V41.9776Z" fill="#0847F7"/>
<path d="M249.543 55.5936H256.645L247.294 42.3179L256.162 32.1763H249.211L241.269 41.3303H240.896V24.3833H234.904V55.5936H240.896V47.949L242.774 45.8664L249.543 55.5912V55.5936Z" fill="#0847F7"/>
<path d="M161.188 22.8483H155.199V28.8375H161.188V22.8483Z" fill="#0847F7"/>
<path d="M206.029 22.8483H200.04V28.8375H206.029V22.8483Z" fill="#0847F7"/>
</g>
</g>
<defs>
<clipPath id="clip0_31_237">
<rect width="253" height="63.9607" fill="white" transform="translate(4 8.01966)"/>
</clipPath>
</defs>
</svg>
