<svg width="320" height="80" viewBox="0 0 320 80" fill="none" xmlns="http://www.w3.org/2000/svg">
<g clip-path="url(#clip0_31_276)">
<g filter="url(#filter0_iii_31_276)">
<mask id="mask0_31_276" style="mask-type:luminance" maskUnits="userSpaceOnUse" x="4" y="8" width="64" height="64">
<path d="M68 40C68 22.3269 53.6731 8 36 8C18.3269 8 4 22.3269 4 40C4 57.6731 18.3269 72 36 72C53.6731 72 68 57.6731 68 40Z" fill="white"/>
</mask>
<g mask="url(#mask0_31_276)">
<path d="M36 72C53.6731 72 68 57.6731 68 40C68 22.3269 53.6731 8 36 8C18.3269 8 4 22.3269 4 40C4 57.6731 18.3269 72 36 72Z" fill="url(#paint0_radial_31_276)"/>
<g filter="url(#filter1_d_31_276)">
<path d="M17.3333 40C17.3333 29.6907 25.6906 21.3333 35.9999 21.3333C46.3092 21.3333 54.6666 29.6907 54.6666 40H17.3333Z" fill="white"/>
</g>
<path d="M17.3333 40H54.6666C54.6666 50.3093 46.3092 58.6667 35.9999 58.6667C25.6906 58.6667 17.3333 50.3093 17.3333 40Z" fill="url(#paint1_radial_31_276)" fill-opacity="0.66"/>
<g filter="url(#filter2_i_31_276)">
<path d="M4 40C4 22.3269 18.3269 8 36 8C53.6731 8 68 22.3269 68 40H4Z" fill="white" fill-opacity="0.2"/>
</g>
</g>
</g>
</g>
<g clip-path="url(#clip1_31_276)">
<path d="M112.902 55.7382C110.09 58.8412 106.405 60.0388 101.847 59.3309C95.2436 58.2982 91.5636 53.0182 90.7781 46.6182C89.4108 35.3745 90.8072 21.7891 105.062 21.2509C111.127 21.0182 117.425 24.3782 118.414 30.7491C118.541 31.5927 118.637 32.2521 118.705 32.7273C118.793 33.2994 118.55 33.5854 117.978 33.5854H112.785C112.233 33.5854 111.932 33.3042 111.884 32.7418C111.331 26.9382 103.811 25.5854 100.393 29.2363C95.8836 34.0654 95.1854 53.3527 104.465 53.6145C109.168 53.7406 111.743 51.2824 112.189 46.24C112.247 45.6388 111.976 45.3382 111.374 45.3382H104.291C103.825 45.3382 103.593 45.1054 103.593 44.64V40.4363C103.593 39.9806 103.821 39.7527 104.276 39.7527H118.007C118.531 39.7527 118.793 40.0145 118.793 40.5382V58.0654C118.793 58.6279 118.511 58.9091 117.949 58.9091H115.287C114.579 58.9091 114.167 58.5551 114.051 57.8472L113.745 55.9854C113.639 55.3163 113.357 55.2339 112.902 55.7382Z" fill="white"/>
<path d="M151.258 45.9927C151.258 49.5109 149.861 52.8851 147.373 55.3728C144.885 57.8606 141.511 59.2582 137.993 59.2582H135.927C132.409 59.2582 129.035 57.8606 126.547 55.3728C124.059 52.8851 122.662 49.5109 122.662 45.9927V34.7636C122.662 31.2454 124.059 27.8713 126.547 25.3835C129.035 22.8958 132.409 21.4982 135.927 21.4982H137.993C141.511 21.4982 144.885 22.8958 147.373 25.3835C149.861 27.8713 151.258 31.2454 151.258 34.7636V45.9927ZM144.524 34.5454C144.524 33.6133 144.34 32.6903 143.983 31.8291C143.627 30.9679 143.104 30.1854 142.445 29.5263C141.786 28.8671 141.003 28.3443 140.142 27.9876C139.281 27.6309 138.358 27.4473 137.425 27.4473H136.495C134.612 27.4473 132.807 28.1951 131.475 29.5263C130.144 30.8574 129.396 32.6629 129.396 34.5454V46.2109C129.396 48.0935 130.144 49.8989 131.475 51.2301C132.807 52.5612 134.612 53.3091 136.495 53.3091H137.425C138.358 53.3091 139.281 53.1255 140.142 52.7688C141.003 52.412 141.786 51.8892 142.445 51.2301C143.104 50.5709 143.627 49.7884 143.983 48.9273C144.34 48.0661 144.524 47.143 144.524 46.2109V34.5454Z" fill="white"/>
<path d="M230.371 27.8254C229.673 28.0776 229.037 28.7806 228.465 29.9345C226.211 34.4582 230.211 35.9127 233.934 36.5382C240.014 37.5418 246.938 38.7345 248.218 45.8036C251.185 62.2982 222.138 64.9891 220.247 47.8982C220.179 47.3067 220.446 47.0109 221.047 47.0109H226.473C227.093 47.0109 227.389 47.3212 227.36 47.9418C226.996 54.4145 235.956 54.5745 239.854 52.2036C243.345 50.0654 241.833 44.9164 237.731 44.1018C233.067 43.1903 229.944 42.4824 228.364 41.9782C222.444 40.0727 219.854 34.6327 221.964 28.96C224.524 22.0945 232.887 19.8545 239.476 22.0218C244.441 23.6412 247.234 27.0885 247.854 32.3636C247.883 32.5964 247.782 32.7127 247.549 32.7127H241.774C241.493 32.7127 241.314 32.577 241.236 32.3054C239.704 27.2048 236.082 25.7115 230.371 27.8254Z" fill="white"/>
<path d="M183.782 53.0473V58.3854C183.782 58.5243 183.726 58.6575 183.628 58.7557C183.53 58.8539 183.397 58.9091 183.258 58.9091H159.534C159.395 58.9091 159.262 58.8539 159.164 58.7557C159.066 58.6575 159.011 58.5243 159.011 58.3854V22.2982C159.011 22.1593 159.066 22.0261 159.164 21.9279C159.262 21.8297 159.395 21.7745 159.534 21.7745H165.222C165.361 21.7745 165.494 21.8297 165.592 21.9279C165.69 22.0261 165.745 22.1593 165.745 22.2982V52C165.745 52.1389 165.8 52.2721 165.899 52.3703C165.997 52.4685 166.13 52.5236 166.269 52.5236H183.258C183.397 52.5236 183.53 52.5788 183.628 52.677C183.726 52.7752 183.782 52.9084 183.782 53.0473Z" fill="white"/>
<path d="M189.484 22.4727C189.484 22.2836 189.559 22.1024 189.692 21.9687C189.826 21.835 190.007 21.7599 190.196 21.7599L201.585 21.7163C205.458 21.705 209.177 23.2633 211.924 26.0484C214.671 28.8334 216.221 32.6171 216.233 36.5672L216.262 44.0145C216.268 45.9706 215.896 47.9086 215.167 49.718C214.439 51.5273 213.368 53.1726 212.016 54.5597C210.664 55.9469 209.057 57.0488 207.287 57.8025C205.518 58.5563 203.62 58.9471 201.702 58.9527L190.313 58.9963C190.219 58.9963 190.126 58.9779 190.04 58.942C189.954 58.9062 189.875 58.8537 189.809 58.7876C189.743 58.7214 189.69 58.6428 189.654 58.5563C189.618 58.4699 189.6 58.3772 189.6 58.2836L189.484 22.4727ZM196.276 28.4799V52.2181C196.276 52.3917 196.345 52.5582 196.468 52.681C196.591 52.8037 196.757 52.8727 196.931 52.8727H200.989C203.234 52.8727 205.387 51.9379 206.975 50.2739C208.563 48.61 209.455 46.3531 209.455 43.9999V36.6981C209.455 34.3449 208.563 32.0881 206.975 30.4242C205.387 28.7602 203.234 27.8254 200.989 27.8254H196.931C196.757 27.8254 196.591 27.8944 196.468 28.0171C196.345 28.1399 196.276 28.3064 196.276 28.4799Z" fill="white"/>
<path d="M274.458 21.7891H281.542C281.624 21.7897 281.705 21.8135 281.774 21.858C281.843 21.9024 281.899 21.9655 281.934 22.04C281.969 22.1146 281.982 22.1975 281.972 22.2792C281.961 22.3609 281.928 22.4381 281.876 22.5018L270.225 37.0909C270.169 37.1591 270.134 37.243 270.126 37.3314C270.119 37.4197 270.138 37.5083 270.182 37.5854L282.109 58.2254C282.147 58.2918 282.167 58.3671 282.167 58.4437C282.167 58.5203 282.147 58.5956 282.109 58.6619C282.071 58.7283 282.015 58.7834 281.949 58.8216C281.883 58.8599 281.807 58.88 281.731 58.88H274.909C274.832 58.88 274.757 58.8599 274.691 58.8216C274.624 58.7833 274.569 58.7282 274.531 58.6618L265.585 43.1709C265.55 43.1103 265.5 43.0592 265.441 43.0218C265.382 42.9844 265.314 42.9619 265.244 42.9562C265.174 42.9505 265.104 42.9617 265.039 42.989C264.975 43.0162 264.917 43.0587 264.873 43.1127L261.076 47.8982C261.014 47.9718 260.979 48.0639 260.974 48.16V58.4582C260.974 58.5739 260.928 58.6849 260.847 58.7667C260.765 58.8486 260.654 58.8945 260.538 58.8945H254.662C254.546 58.8945 254.435 58.8486 254.353 58.7667C254.271 58.6849 254.225 58.5739 254.225 58.4582V22.2109C254.225 22.1536 254.237 22.0968 254.259 22.0439C254.28 21.991 254.313 21.9429 254.353 21.9023C254.394 21.8618 254.442 21.8297 254.495 21.8078C254.548 21.7858 254.604 21.7745 254.662 21.7745H260.524C260.581 21.7745 260.638 21.7858 260.691 21.8078C260.743 21.8297 260.792 21.8618 260.832 21.9023C260.873 21.9429 260.905 21.991 260.927 22.0439C260.949 22.0968 260.96 22.1536 260.96 22.2109V37.1782C260.961 37.2674 260.989 37.3543 261.04 37.4271C261.092 37.4999 261.165 37.555 261.249 37.5852C261.333 37.6153 261.424 37.6189 261.51 37.5955C261.597 37.5722 261.673 37.523 261.731 37.4545L274.124 21.9491C274.164 21.8995 274.215 21.8594 274.273 21.8318C274.331 21.8041 274.394 21.7895 274.458 21.7891Z" fill="white"/>
<path d="M299.549 36.3636C299.588 36.3636 299.627 36.3587 299.665 36.349C299.811 36.3296 299.893 36.3103 299.913 36.2909L307.927 22.1236C308.053 21.9103 308.238 21.8036 308.48 21.8036H314.865C314.911 21.8051 314.955 21.8182 314.993 21.8418C315.032 21.8654 315.064 21.8986 315.086 21.9381C315.108 21.9777 315.119 22.0223 315.119 22.0675C315.118 22.1128 315.106 22.1571 315.084 22.1963L303.316 42.589C303.064 43.0254 302.938 43.5006 302.938 44.0145V58.0509C302.938 58.5163 302.705 58.783 302.24 58.8509C301.939 58.8896 301.033 58.909 299.52 58.909C297.998 58.909 297.091 58.8848 296.8 58.8363C296.325 58.7684 296.092 58.5018 296.102 58.0363L296.145 44C296.145 43.486 296.019 43.0109 295.767 42.5745L284.073 22.1527C284.05 22.1135 284.038 22.0691 284.038 22.0239C284.037 21.9786 284.049 21.934 284.071 21.8945C284.093 21.8549 284.124 21.8217 284.163 21.7982C284.202 21.7746 284.246 21.7614 284.291 21.7599L290.676 21.7745C290.919 21.7745 291.103 21.8812 291.229 22.0945L299.185 36.2909C299.205 36.3103 299.292 36.3296 299.447 36.349C299.476 36.3587 299.51 36.3636 299.549 36.3636Z" fill="white"/>
</g>
<defs>
<filter id="filter0_iii_31_276" x="4" y="6" width="64" height="68" filterUnits="userSpaceOnUse" color-interpolation-filters="sRGB">
<feFlood flood-opacity="0" result="BackgroundImageFix"/>
<feBlend mode="normal" in="SourceGraphic" in2="BackgroundImageFix" result="shape"/>
<feColorMatrix in="SourceAlpha" type="matrix" values="0 0 0 0 0 0 0 0 0 0 0 0 0 0 0 0 0 0 127 0" result="hardAlpha"/>
<feOffset dy="-1"/>
<feGaussianBlur stdDeviation="0.5"/>
<feComposite in2="hardAlpha" operator="arithmetic" k2="-1" k3="1"/>
<feColorMatrix type="matrix" values="0 0 0 0 1 0 0 0 0 0.843137 0 0 0 0 0.501961 0 0 0 0.25 0"/>
<feBlend mode="normal" in2="shape" result="effect1_innerShadow_31_276"/>
<feColorMatrix in="SourceAlpha" type="matrix" values="0 0 0 0 0 0 0 0 0 0 0 0 0 0 0 0 0 0 127 0" result="hardAlpha"/>
<feOffset dy="-2"/>
<feGaussianBlur stdDeviation="2"/>
<feComposite in2="hardAlpha" operator="arithmetic" k2="-1" k3="1"/>
<feColorMatrix type="matrix" values="0 0 0 0 0.958333 0 0 0 0 0 0 0 0 0 3.42727e-07 0 0 0 0.25 0"/>
<feBlend mode="normal" in2="effect1_innerShadow_31_276" result="effect2_innerShadow_31_276"/>
<feColorMatrix in="SourceAlpha" type="matrix" values="0 0 0 0 0 0 0 0 0 0 0 0 0 0 0 0 0 0 127 0" result="hardAlpha"/>
<feOffset dy="2"/>
<feGaussianBlur stdDeviation="3"/>
<feComposite in2="hardAlpha" operator="arithmetic" k2="-1" k3="1"/>
<feColorMatrix type="matrix" values="0 0 0 0 1 0 0 0 0 1 0 0 0 0 1 0 0 0 0.5 0"/>
<feBlend mode="normal" in2="effect2_innerShadow_31_276" result="effect3_innerShadow_31_276"/>
</filter>
<filter id="filter1_d_31_276" x="14.3333" y="18.3333" width="43.3333" height="24.6667" filterUnits="userSpaceOnUse" color-interpolation-filters="sRGB">
<feFlood flood-opacity="0" result="BackgroundImageFix"/>
<feColorMatrix in="SourceAlpha" type="matrix" values="0 0 0 0 0 0 0 0 0 0 0 0 0 0 0 0 0 0 127 0" result="hardAlpha"/>
<feOffset/>
<feGaussianBlur stdDeviation="1.5"/>
<feComposite in2="hardAlpha" operator="out"/>
<feColorMatrix type="matrix" values="0 0 0 0 1 0 0 0 0 1 0 0 0 0 1 0 0 0 1 0"/>
<feBlend mode="normal" in2="BackgroundImageFix" result="effect1_dropShadow_31_276"/>
<feBlend mode="normal" in="SourceGraphic" in2="effect1_dropShadow_31_276" result="shape"/>
</filter>
<filter id="filter2_i_31_276" x="4" y="8" width="64" height="36" filterUnits="userSpaceOnUse" color-interpolation-filters="sRGB">
<feFlood flood-opacity="0" result="BackgroundImageFix"/>
<feBlend mode="normal" in="SourceGraphic" in2="BackgroundImageFix" result="shape"/>
<feColorMatrix in="SourceAlpha" type="matrix" values="0 0 0 0 0 0 0 0 0 0 0 0 0 0 0 0 0 0 127 0" result="hardAlpha"/>
<feOffset dy="4"/>
<feGaussianBlur stdDeviation="2"/>
<feComposite in2="hardAlpha" operator="arithmetic" k2="-1" k3="1"/>
<feColorMatrix type="matrix" values="0 0 0 0 1 0 0 0 0 1 0 0 0 0 1 0 0 0 0.25 0"/>
<feBlend mode="normal" in2="shape" result="effect1_innerShadow_31_276"/>
</filter>
<radialGradient id="paint0_radial_31_276" cx="0" cy="0" r="1" gradientUnits="userSpaceOnUse" gradientTransform="translate(36 72) rotate(-90) scale(64 103.033)">
<stop stop-color="#FE5117"/>
<stop offset="1" stop-color="#FFC61C"/>
</radialGradient>
<radialGradient id="paint1_radial_31_276" cx="0" cy="0" r="1" gradientUnits="userSpaceOnUse" gradientTransform="translate(35.9999 40) rotate(90) scale(18.6667 37.3333)">
<stop stop-color="white"/>
<stop offset="1" stop-color="white" stop-opacity="0"/>
</radialGradient>
<clipPath id="clip0_31_276">
<rect width="64" height="64" fill="white" transform="translate(4 8)"/>
</clipPath>
<clipPath id="clip1_31_276">
<rect width="225.455" height="39.2727" fill="white" transform="translate(89.8181 21.0909)"/>
</clipPath>
</defs>
</svg>
