<svg width="247" height="80" viewBox="0 0 247 80" fill="none" xmlns="http://www.w3.org/2000/svg">
<g clip-path="url(#clip0_15_131)">
<path d="M23.8856 8.04004C21.5249 8.05181 19.1895 8.531 17.013 9.45032C14.8365 10.3696 12.8614 11.7112 11.2005 13.398C9.53966 15.0849 8.22558 17.0842 7.3333 19.2818C6.44102 21.4793 5.98806 23.8321 6.00024 26.2057V32.2059H20.5322V23.5128C20.5321 23.1045 20.6119 22.7002 20.7672 22.323C20.9225 21.9458 21.1502 21.603 21.4373 21.3143C21.7244 21.0256 22.0653 20.7967 22.4404 20.6405C22.8155 20.4843 23.2176 20.4039 23.6237 20.404H24.1476C24.5537 20.4039 24.9559 20.4843 25.3309 20.6405C25.7062 20.7967 26.047 21.0256 26.3343 21.3143C26.6213 21.603 26.849 21.9458 27.0045 22.323C27.1598 22.7002 27.2397 23.1045 27.2397 23.5128V46.8169C29.1481 46.8169 31.0378 46.439 32.8009 45.7049C34.564 44.9706 36.1661 43.8943 37.5156 42.5377C38.865 41.1809 39.9353 39.5701 40.6657 37.7974C41.3959 36.0248 41.7717 34.1247 41.7717 32.2059V26.2057C41.782 21.3965 39.8985 16.7787 36.5327 13.3615C34.8813 11.6752 32.9126 10.3363 30.7412 9.4227C28.57 8.50909 26.2395 8.03905 23.8856 8.04004Z" fill="#F2F2F2"/>
<path d="M24.1483 58.6132H23.6244C23.2184 58.6132 22.8164 58.5328 22.4413 58.3767C22.0661 58.2205 21.7253 57.9915 21.4382 57.7028C21.1511 57.4142 20.9234 57.0716 20.7681 56.6945C20.6128 56.3174 20.5329 55.913 20.5329 55.5048V32.2009C18.6245 32.2007 16.7347 32.5784 14.9716 33.3126C13.2084 34.0469 11.6064 35.123 10.2569 36.4798C8.90746 37.8366 7.83701 39.4474 7.10677 41.2202C6.37653 42.9929 6.00077 44.893 6.00094 46.8117V52.7285C5.97673 55.1055 6.42148 57.4638 7.30946 59.667C8.19744 61.8702 9.51103 63.8744 11.1743 65.564C12.8375 67.2533 14.8174 68.5945 16.9994 69.5099C19.1814 70.4253 21.5223 70.8966 23.8866 70.8966C26.251 70.8966 28.5918 70.4253 30.7739 69.5099C32.9558 68.5945 34.9358 67.2533 36.5991 65.564C38.2623 63.8744 39.5759 61.8702 40.4638 59.667C41.3519 57.4638 41.7965 55.1055 41.7723 52.7285V46.8117H27.2404V55.5048C27.2404 55.9132 27.1603 56.3174 27.0051 56.6945C26.8496 57.0716 26.6217 57.4144 26.3346 57.7029C26.0476 57.9917 25.7067 58.2205 25.3315 58.3767C24.9564 58.5328 24.5543 58.6132 24.1483 58.6132Z" fill="#F2F2F2"/>
<path d="M66.6118 26.4875H61.5186V52.4661H76.4676V47.5684H66.6124L66.6118 26.4875Z" fill="#F2F2F2"/>
<path d="M92.7787 36.1093C92.0604 35.2116 91.1405 34.498 90.0946 34.0272C89.0488 33.5563 87.9067 33.3414 86.7621 33.4001C85.5663 33.3907 84.3824 33.6392 83.2904 34.1291C82.1983 34.6191 81.2235 35.3389 80.4318 36.24C78.7319 38.155 77.7925 40.6319 77.7925 43.1988C77.7925 45.7656 78.7319 48.2425 80.4318 50.1576C81.2237 51.0584 82.1986 51.7778 83.2907 52.2676C84.3828 52.7571 85.5665 53.0057 86.7621 52.9963C89.3462 52.9963 91.3518 52.0931 92.7787 50.2872V52.477H97.5408V33.921H92.7787V36.1093ZM91.3215 46.9652C90.8412 47.4486 90.2674 47.8278 89.6359 48.0799C89.0042 48.332 88.328 48.4514 87.6488 48.4309C86.972 48.4527 86.2982 48.3339 85.6691 48.0816C85.0403 47.8295 84.4701 47.4493 83.9938 46.9652C83.067 45.9318 82.5541 44.5895 82.5541 43.1979C82.5541 41.8061 83.067 40.464 83.9938 39.4306C84.4702 38.9468 85.0406 38.5671 85.6695 38.315C86.2982 38.0629 86.9721 37.9439 87.6488 37.9653C88.3278 37.9452 89.004 38.0647 89.6355 38.3167C90.2672 38.5686 90.841 38.9476 91.3215 39.4306C92.2589 40.4589 92.7787 41.8029 92.7787 43.1979C92.7787 44.5927 92.2589 45.9369 91.3215 46.9652Z" fill="#F2F2F2"/>
<path d="M109.813 46.3769L104.999 33.9048H99.7944L107.359 51.8678C107.042 52.9398 106.42 53.8946 105.569 54.6141C104.674 55.2242 103.601 55.512 102.523 55.4312V59.8853C104.624 60.0806 106.725 59.5068 108.44 58.2692C110.024 57.0673 111.296 55.1418 112.257 52.4927L118.985 33.9061H113.891L109.813 46.3769Z" fill="#F2F2F2"/>
<path d="M129.294 33.3965C127.995 33.3506 126.702 33.5758 125.495 34.0582C124.288 34.5406 123.194 35.2697 122.281 36.1992C120.519 38.1036 119.543 40.61 119.549 43.2112C119.556 45.8122 120.545 48.3135 122.317 50.2087C124.163 52.0637 126.612 52.9915 129.663 52.9919C133.206 52.9919 135.888 51.6686 137.71 49.0219L133.871 46.7943C133.383 47.4171 132.752 47.9114 132.031 48.2345C131.311 48.5579 130.524 48.7004 129.737 48.6498C126.906 48.6498 125.171 47.4872 124.532 45.1619H138.448C138.567 44.5127 138.629 43.854 138.632 43.1939C138.703 40.6091 137.754 38.1013 135.994 36.2168C135.141 35.2943 134.102 34.5654 132.946 34.0791C131.791 33.5927 130.546 33.36 129.294 33.3965ZM124.458 41.4502C124.669 40.3598 125.257 39.3799 126.119 38.6845C127.035 38.0038 128.154 37.6567 129.293 37.7013C130.333 37.6877 131.35 38.0135 132.191 38.6298C133.086 39.3222 133.686 40.3299 133.87 41.4496L124.458 41.4502Z" fill="#F2F2F2"/>
<path d="M146.709 37.1002V33.9076H141.947V52.4641H146.709V43.5944C146.709 41.8131 147.281 40.5389 148.425 39.7717C149.571 39.0044 150.957 38.6873 152.32 38.8809V33.5381C151.123 33.5229 149.944 33.8305 148.905 34.4287C147.88 35.0271 147.101 35.9748 146.709 37.1002Z" fill="#F2F2F2"/>
<path d="M175.534 30.5052V26.4873H158.597V31.3865H169.08L158.324 48.3746V52.4653H175.74V47.5675H164.777L175.534 30.5052Z" fill="#F2F2F2"/>
<path d="M186.987 33.3965C185.689 33.3506 184.395 33.5758 183.188 34.0582C181.981 34.5406 180.886 35.2697 179.974 36.1992C178.211 38.1036 177.235 40.6102 177.242 43.2114C177.249 45.8124 178.238 48.3137 180.01 50.2087C181.856 52.0637 184.305 52.9915 187.356 52.9919C190.898 52.9919 193.581 51.6686 195.403 49.0219L191.564 46.7943C191.076 47.4169 190.444 47.9112 189.724 48.2344C189.004 48.5577 188.217 48.7002 187.43 48.6498C184.599 48.6498 182.864 47.4872 182.225 45.1619H196.141C196.26 44.5125 196.322 43.854 196.326 43.1939C196.395 40.6091 195.448 38.1013 193.687 36.2168C192.834 35.2943 191.795 34.5654 190.64 34.0791C189.484 33.5927 188.239 33.36 186.987 33.3965ZM182.152 41.4502C182.362 40.3598 182.951 39.3797 183.813 38.6845C184.729 38.0034 185.848 37.6565 186.987 37.7015C188.027 37.6874 189.044 38.0132 189.885 38.6298C190.779 39.3222 191.379 40.3299 191.564 41.4496L182.152 41.4502Z" fill="#F2F2F2"/>
<path d="M204.402 37.1002V33.9076H199.64V52.4641H204.402V43.5944C204.402 41.8131 204.974 40.5389 206.119 39.7717C207.264 39.0044 208.649 38.6875 210.012 38.8809V33.5381C208.816 33.5229 207.636 33.8305 206.598 34.4287C205.572 35.0271 204.793 35.9746 204.402 37.1002Z" fill="#F2F2F2"/>
<path d="M220.871 33.3931C218.635 33.4179 216.479 34.2194 214.766 35.6615C213.054 37.1037 211.888 39.0976 211.473 41.3045C211.055 43.5115 211.41 45.7955 212.478 47.7689C213.546 49.7423 215.261 51.2832 217.329 52.1301C219.399 52.9769 221.696 53.0777 223.832 52.415C225.965 51.7523 227.806 50.3669 229.041 48.4944C230.276 46.6219 230.827 44.3778 230.603 42.1426C230.378 39.9075 229.391 37.8196 227.81 36.233C226.907 35.307 225.826 34.5771 224.633 34.0885C223.439 33.6001 222.158 33.3634 220.871 33.3931ZM224.45 46.8652C223.984 47.3391 223.426 47.7119 222.809 47.9607C222.194 48.2092 221.534 48.3284 220.871 48.3107C220.209 48.3297 219.551 48.2111 218.938 47.9624C218.325 47.7134 217.769 47.3401 217.306 46.8652C216.392 45.8622 215.885 44.5511 215.885 43.1907C215.885 41.8306 216.392 40.5196 217.306 39.5165C217.769 39.0418 218.325 38.6684 218.938 38.4197C219.551 38.1709 220.209 38.0519 220.871 38.0707C221.534 38.0533 222.192 38.1726 222.809 38.4214C223.426 38.6699 223.984 39.0427 224.45 39.5165C225.375 40.5138 225.89 41.827 225.89 43.1907C225.89 44.5547 225.375 45.8679 224.45 46.8652Z" fill="#F2F2F2"/>
<path d="M240.641 46.7563H234.847V52.4717H240.641V46.7563Z" fill="#F2F2F2"/>
<path d="M240.641 46.7563H234.847V52.4717H240.641V46.7563Z" fill="#F2F2F2"/>
</g>
<defs>
<clipPath id="clip0_15_131">
<rect width="235" height="63.92" fill="white" transform="translate(6 8.04004)"/>
</clipPath>
</defs>
</svg>
