<svg width="146" height="48" viewBox="0 0 146 48" fill="none" xmlns="http://www.w3.org/2000/svg">
<g clip-path="url(#clip0_2657_6623)">
<path d="M13.7367 36.8262H12V38.5653H13.7367V36.8262Z" fill="#FF5100"/>
<path d="M17.2093 36.8262H15.4727V38.5653H17.2093V36.8262Z" fill="#FF5100"/>
<path d="M20.6839 36.8262H18.9473V38.5653H20.6839V36.8262Z" fill="#FF5100"/>
<path d="M20.6839 33.3477H18.9473V35.0868H20.6839V33.3477Z" fill="#FF5100"/>
<path d="M20.6839 29.8711H18.9473V31.6102H20.6839V29.8711Z" fill="#FF5100"/>
<path d="M17.2093 33.3477H15.4727V35.0868H17.2093V33.3477Z" fill="#FF5100"/>
<path d="M17.2093 29.8711H15.4727V31.6102H17.2093V29.8711Z" fill="#FF5100"/>
<path d="M13.7367 33.3477H12V35.0868H13.7367V33.3477Z" fill="#FF5100"/>
<path d="M13.7367 29.8711H12V31.6102H13.7367V29.8711Z" fill="#FF5100"/>
<path d="M13.7367 35.0879H12V36.827H13.7367V35.0879Z" fill="#FF5100"/>
<path d="M17.2093 35.0879H15.4727V36.827H17.2093V35.0879Z" fill="#FF5100"/>
<path d="M20.6839 35.0879H18.9473V36.827H20.6839V35.0879Z" fill="#FF5100"/>
<path d="M20.6839 31.6074H18.9473V33.3466H20.6839V31.6074Z" fill="#FF5100"/>
<path d="M20.6839 28.1309H18.9473V29.87H20.6839V28.1309Z" fill="#FF5100"/>
<path d="M17.2093 31.6074H15.4727V33.3466H17.2093V31.6074Z" fill="#FF5100"/>
<path d="M17.2093 28.1309H15.4727V29.87H17.2093V28.1309Z" fill="#FF5100"/>
<path d="M13.7367 31.6074H12V33.3466H13.7367V31.6074Z" fill="#FF5100"/>
<path d="M13.7367 28.1309H12V29.87H13.7367V28.1309Z" fill="#FF5100"/>
<path d="M15.473 36.8262H13.7363V38.5653H15.473V36.8262Z" fill="#FF5100"/>
<path d="M18.9456 36.8262H17.209V38.5653H18.9456V36.8262Z" fill="#FF5100"/>
<path d="M22.4183 36.8262H20.6816V38.5653H22.4183V36.8262Z" fill="#FF5100"/>
<path d="M22.4183 33.3477H20.6816V35.0868H22.4183V33.3477Z" fill="#FF5100"/>
<path d="M22.4183 29.8711H20.6816V31.6102H22.4183V29.8711Z" fill="#FF5100"/>
<path d="M18.9456 33.3477H17.209V35.0868H18.9456V33.3477Z" fill="#FF5100"/>
<path d="M18.9456 29.8711H17.209V31.6102H18.9456V29.8711Z" fill="#FF5100"/>
<path d="M15.473 33.3477H13.7363V35.0868H15.473V33.3477Z" fill="#FF5100"/>
<path d="M15.473 29.8711H13.7363V31.6102H15.473V29.8711Z" fill="#FF5100"/>
<path d="M15.473 35.0879H13.7363V36.827H15.473V35.0879Z" fill="#FF5100"/>
<path d="M18.9456 35.0879H17.209V36.827H18.9456V35.0879Z" fill="#FF5100"/>
<path d="M22.4183 35.0879H20.6816V36.827H22.4183V35.0879Z" fill="#FF5100"/>
<path d="M22.4183 31.6074H20.6816V33.3466H22.4183V31.6074Z" fill="#FF5100"/>
<path d="M18.9456 31.6074H17.209V33.3466H18.9456V31.6074Z" fill="#FF5100"/>
<path d="M18.9456 28.1309H17.209V29.87H18.9456V28.1309Z" fill="#FF5100"/>
<path d="M15.473 31.6074H13.7363V33.3466H15.473V31.6074Z" fill="#FF5100"/>
<path d="M15.473 28.1309H13.7363V29.87H15.473V28.1309Z" fill="#FF5100"/>
<path fill-rule="evenodd" clip-rule="evenodd" d="M25.8932 29.8711H22.4199V33.3494C22.4199 31.4283 23.975 29.8711 25.8932 29.8711Z" fill="#FF5100"/>
<path fill-rule="evenodd" clip-rule="evenodd" d="M17.209 28.1306H20.6823V24.6523C20.6823 26.5734 19.1272 28.1306 17.209 28.1306Z" fill="#FF5100"/>
<path d="M32.8382 9H20.6816V29.8696H32.8382V9Z" fill="#FF5100"/>
<path d="M32.8399 29.8696C38.5946 29.8696 43.2598 25.1978 43.2598 19.4348C43.2598 13.6718 38.5946 9 32.8399 9C27.0851 9 22.4199 13.6718 22.4199 19.4348C22.4199 25.1978 27.0851 29.8696 32.8399 29.8696Z" fill="#FF5100"/>
<path d="M58.2645 38.5365H53.6797V11.7539H67.243C72.7065 11.7539 76.0304 15.3887 76.0304 20.1713C76.0304 25.5661 72.2862 28.8565 67.243 28.8565H58.2645V38.5365ZM58.2645 15.8861V24.7243H67.0137C69.8792 24.7243 71.3693 22.5817 71.3693 20.1713C71.3693 17.6461 69.65 15.8861 67.0137 15.8861H58.2645Z" fill="white"/>
<path d="M84.4728 38.8621C79.8116 38.8621 76.7551 36.6047 76.7933 32.8169C76.8315 28.0725 81.5309 27.0777 85.4662 26.6186C88.5227 26.2743 90.7769 26.1595 90.8151 24.5525C90.7769 22.563 89.2486 21.2621 86.6506 21.2621C83.9761 21.2621 82.0658 22.716 81.7984 24.8203H77.2518C77.6721 20.5351 81.4927 17.5508 86.727 17.5508C92.1905 17.5508 95.2088 20.5351 95.2088 24.8586V34.0412C95.2088 34.6151 95.5145 34.9212 96.2022 34.9212H97.3102V38.4412H95.1706C93.1075 38.4412 91.8466 37.5995 91.5028 36.069C91.4264 35.8777 91.35 35.6099 91.3118 35.3803C90.1274 37.5612 87.9114 38.8621 84.4728 38.8621ZM85.3898 35.3038C88.4845 35.3038 90.8151 33.5438 90.8151 30.8273V27.996C90.0509 29.1821 88.1024 29.4499 85.9629 29.7177C83.4412 30.0238 81.3399 30.3682 81.3399 32.5108C81.3399 34.2708 82.7535 35.3038 85.3898 35.3038Z" fill="white"/>
<path d="M104.749 38.4922H100.24V18.2139H103.87L104.405 22.1931C105.704 19.4383 108.073 17.9844 111.435 17.9844H112.199V22.3844H111.435C107.232 22.3844 104.749 24.6418 104.749 28.4679V38.4922Z" fill="white"/>
<path d="M121.09 38.8621C116.429 38.8621 113.372 36.6047 113.411 32.8169C113.449 28.0725 118.148 27.0777 122.083 26.6186C125.14 26.2743 127.394 26.1595 127.432 24.5525C127.394 22.563 125.866 21.2621 123.268 21.2621C120.593 21.2621 118.683 22.716 118.416 24.8203H113.869C114.289 20.5351 118.11 17.5508 123.344 17.5508C128.808 17.5508 131.826 20.5351 131.826 24.8586V34.0412C131.826 34.6151 132.132 34.9212 132.819 34.9212H133.927V38.4412H131.788C129.725 38.4412 128.464 37.5995 128.12 36.069C128.044 35.8777 127.967 35.6099 127.929 35.3803C126.745 37.5612 124.529 38.8621 121.09 38.8621ZM122.007 35.3038C125.102 35.3038 127.432 33.5438 127.432 30.8273V27.996C126.668 29.1821 124.72 29.4499 122.58 29.7177C120.058 30.0238 117.957 30.3682 117.957 32.5108C117.957 34.2708 119.371 35.3038 122.007 35.3038Z" fill="white"/>
</g>
<defs>
<clipPath id="clip0_2657_6623">
<rect width="122" height="30" fill="white" transform="translate(12 9)"/>
</clipPath>
</defs>
</svg>
