<svg width="301" height="80" viewBox="0 0 301 80" fill="none" xmlns="http://www.w3.org/2000/svg">
<g clip-path="url(#clip0_15_98)">
<path d="M15.9573 68C24.5387 68 30.9878 60.5368 34.8363 54.6393C34.3683 55.944 34.1082 57.2487 34.1082 58.5015C34.1082 61.946 36.0845 64.399 39.9853 64.399C45.342 64.399 51.063 59.7018 54.0275 54.6393C53.8195 55.37 53.7155 56.0485 53.7155 56.6748C53.7155 59.0755 55.0678 60.589 57.824 60.589C66.5095 60.589 75.247 45.193 75.247 31.7279C75.247 21.2376 69.942 12 56.628 12C33.224 12 8 40.6003 8 59.0755C8 66.33 11.9006 68 15.9573 68ZM48.5665 30.5797C48.5665 27.9702 50.0228 26.1435 52.1553 26.1435C54.2355 26.1435 55.6917 27.9702 55.6917 30.5797C55.6917 33.1892 54.2355 35.068 52.1553 35.068C50.0228 35.068 48.5665 33.1892 48.5665 30.5797ZM59.6965 30.5797C59.6965 27.9702 61.1527 26.1435 63.285 26.1435C65.3652 26.1435 66.8215 27.9702 66.8215 30.5797C66.8215 33.1892 65.3652 35.068 63.285 35.068C61.1527 35.068 59.6965 33.1892 59.6965 30.5797Z" fill="#AB9FF2"/>
<path d="M85.647 62.3113H93.4482V54.6394C93.4482 51.0384 93.1362 49.6814 91.316 46.0281L92.304 45.5061C94.9565 51.7169 98.7012 53.9609 102.55 53.9609C108.739 53.9609 113.679 48.5331 113.679 40.1306C113.679 32.0933 109.155 26.1958 102.654 26.1958C98.8052 26.1958 94.9565 28.3878 92.304 34.6506L91.316 34.1287C92.5642 31.6236 93.4482 29.275 93.4482 27.0309H85.647V62.3113ZM93.4482 40.0784C93.4482 36.6339 96.0487 32.824 99.8972 32.824C103.018 32.824 105.566 35.3813 105.566 40.0261C105.566 44.6189 103.122 47.3328 99.8452 47.3328C96.2047 47.3328 93.4482 43.6274 93.4482 40.0784Z" fill="#AB9FF2"/>
<path d="M116.527 53.1258H124.328V43.9403C124.328 37.4688 126.617 32.8761 130.881 32.8761C133.586 32.8761 134.418 34.7028 134.418 39.2433V53.1258H142.219V37.9908C142.219 29.7447 139.255 26.1958 133.586 26.1958C127.761 26.1958 125.836 30.1101 123.6 34.8594L122.612 34.3375C123.964 31.4148 124.328 29.6404 124.328 27.0308V18.002H116.527V53.1258Z" fill="#AB9FF2"/>
<path d="M153.621 53.9609C158.665 53.9609 161.63 50.6209 163.866 46.3411L164.802 46.8109C163.814 48.8464 162.878 51.1949 162.878 53.1259H170.523V38.9301C170.523 30.4754 166.987 26.1958 158.717 26.1958C150.604 26.1958 146.599 30.2667 145.819 34.5462L153.309 35.851C153.569 33.6068 155.389 32.0933 158.301 32.0933C161.214 32.0933 162.878 33.5546 162.878 35.3291C162.878 37.1036 161.162 37.9386 156.585 37.9909C149.824 38.0951 144.831 40.5481 144.831 45.7671C144.831 50.0466 148.212 53.9609 153.621 53.9609ZM152.58 45.2451C152.58 41.1221 159.133 43.9926 162.722 40.8091V41.7484C162.722 45.4539 159.446 48.1679 156.169 48.1679C154.453 48.1679 152.58 47.4371 152.58 45.2451Z" fill="#AB9FF2"/>
<path d="M173.614 53.1259H181.416V43.9404C181.416 37.4689 183.704 32.8762 187.969 32.8762C190.673 32.8762 191.505 34.7028 191.505 39.2434V53.1259H199.307V37.9909C199.307 29.7448 196.342 26.1958 190.673 26.1958C184.848 26.1958 182.924 30.1101 180.687 34.8594L179.699 34.3375C181.051 31.4148 181.416 29.6404 181.416 27.0309H173.614V53.1259Z" fill="#AB9FF2"/>
<path d="M220.085 53.2303V46.7586C218.421 47.3328 213.792 48.3243 213.792 44.5146V33.2937H220.033V27.0308H213.792V20.0374L205.939 22.3859V27.0308H201.258V33.2937H205.939L205.991 45.1408C205.991 53.8566 213.74 55.1091 220.085 53.2303Z" fill="#AB9FF2"/>
<path d="M235.932 53.9609C243.837 53.9609 249.87 47.9069 249.87 40.0261C249.87 32.1977 243.837 26.1958 235.932 26.1958C228.027 26.1958 221.942 32.1977 221.942 40.0261C221.942 47.9069 228.027 53.9609 235.932 53.9609ZM230.003 40.0784C230.003 35.7466 232.448 32.7196 235.932 32.7196C239.417 32.7196 241.809 35.7466 241.809 40.0784C241.809 44.4101 239.417 47.4371 235.932 47.4371C232.448 47.4371 230.003 44.4101 230.003 40.0784Z" fill="#AB9FF2"/>
<path d="M252.288 53.1259H260.088V43.9404C260.088 37.2079 262.22 32.8762 265.653 32.8762C267.89 32.8762 268.618 34.6506 268.618 39.2434V53.1259H276.42V43.9404C276.42 37.6254 278.708 32.8762 281.985 32.8762C284.168 32.8762 284.948 34.9116 284.948 39.2434V53.1259H292.75V37.9909C292.75 29.6926 290.045 26.1958 284.74 26.1958C279.228 26.1958 277.253 30.1101 275.328 34.9116L274.39 34.4419C276.213 28.9619 272.258 26.1958 268.358 26.1958C263.21 26.1958 261.338 30.1101 259.258 34.8594L258.32 34.3375C259.62 31.4148 260.088 29.6404 260.088 27.0309H252.288V53.1259Z" fill="#AB9FF2"/>
</g>
<defs>
<clipPath id="clip0_15_98">
<rect width="284.75" height="56" fill="white" transform="translate(8 12)"/>
</clipPath>
</defs>
</svg>
