<svg width="272" height="80" viewBox="0 0 272 80" fill="none" xmlns="http://www.w3.org/2000/svg">
<g clip-path="url(#clip0_15_209)">
<path d="M40.0465 19.9668H5V25.0975H37.48V38.3538H16.7598C15.3434 38.3538 14.1935 39.5015 14.1935 40.9201V51.0615H19.3264V43.4865H40.0465C41.463 43.4865 42.6129 42.3388 42.6129 40.9201V22.531C42.6129 21.1146 41.4652 19.9646 40.0465 19.9646V19.9668Z" fill="white"/>
<path d="M10.1329 54.9001H23.387V47.5493H28.5199V57.4687C28.5199 58.8872 27.3697 60.0351 25.9532 60.0351H7.56634C6.14777 60.0351 5 58.8851 5 57.4687V31.7266C5 30.308 6.14994 29.1602 7.56634 29.1602H33.4194V34.2908H10.1329V54.9001Z" fill="white"/>
<path d="M40.0465 19.9668H5V25.0975H37.48V38.3538H16.7598C15.3434 38.3538 14.1935 39.5015 14.1935 40.9201V51.0615H19.3264V43.4865H40.0465C41.463 43.4865 42.6129 42.3388 42.6129 40.9201V22.531C42.6129 21.1146 41.4652 19.9646 40.0465 19.9646V19.9668Z" fill="white"/>
<path d="M221.589 19.969H192.578C191.171 19.969 190.029 21.1101 190.029 22.5177V57.4532C190.029 58.8608 191.171 60.0018 192.578 60.0018H221.52C222.195 60.0018 222.845 59.7332 223.323 59.2559C223.799 58.7786 224.069 58.1302 224.069 57.4532V45.9952H218.971V54.9044H195.129V25.0686H219.04V29.1313H201.743C200.335 29.1313 199.194 30.2725 199.194 31.68V48.282C199.194 49.6895 200.335 50.8306 201.743 50.8306H214.908V45.731H204.291V34.2265H221.589C222.996 34.2265 224.137 33.0853 224.137 31.6778V22.5177C224.137 21.1101 222.996 19.969 221.589 19.969Z" fill="white"/>
<path d="M10.1329 54.9001H23.387V47.5493H28.5199V57.4687C28.5199 58.8872 27.3697 60.0351 25.9532 60.0351H7.56634C6.14777 60.0351 5 58.8851 5 57.4687V31.7266C5 30.308 6.14994 29.1602 7.56634 29.1602H33.4194V34.2908H10.1329V54.9001Z" fill="white"/>
<path d="M181.193 60.033H172C170.584 60.033 169.434 58.8852 169.434 57.4665V22.531C169.434 21.1146 170.582 19.9646 172 19.9646H183.773V25.0975H174.566V54.9001H178.629V29.1602H183.761V57.4665C183.761 58.883 182.613 60.033 181.193 60.033Z" fill="white"/>
<path d="M51.2202 60.033H60.4136C61.8324 60.033 62.9801 58.883 62.9801 57.4665V29.1602H57.8494V54.9001H53.7867V25.0975H62.9934V19.9646H51.2202C49.8015 19.9646 48.6538 21.1146 48.6538 22.531V57.4665C48.6538 58.8852 49.8037 60.033 51.2202 60.033Z" fill="white"/>
<path d="M125.591 22.531V57.4665C125.591 58.883 124.444 60.033 123.027 60.033H111.611V54.9001H120.461V25.0974H107.009L99.674 42.3076C99.2699 43.2534 98.3419 43.8662 97.3141 43.8662C96.2862 43.8662 95.3581 43.2534 94.9541 42.3076L87.6189 25.0974H74.1674V54.9001H83.0165V60.033H71.6008C70.1843 60.033 69.0366 58.883 69.0366 57.4665V22.531C69.0366 21.1146 70.1843 19.9668 71.6008 19.9668H89.3128C90.3429 19.9668 91.271 20.5795 91.675 21.5253L97.3141 34.7571L102.953 21.5253C103.357 20.5795 104.285 19.9668 105.315 19.9668H123.027C124.444 19.9668 125.591 21.1146 125.591 22.531Z" fill="white"/>
<path d="M116.398 50.8372V31.7266C116.398 30.308 115.248 29.1602 113.831 29.1602H111.447C110.419 29.1602 109.489 29.7729 109.087 30.7187L101.206 48.9656H93.4221L85.5407 30.7187C85.1391 29.7729 84.2087 29.1602 83.1809 29.1602H80.7963C79.38 29.1602 78.23 30.308 78.23 31.7266V50.8372H83.0164V36.2423L90.0653 52.5379C90.4672 53.4836 91.3973 54.0963 92.4253 54.0963H102.203C103.23 54.0963 104.161 53.4836 104.563 52.5379L111.611 36.2423V50.8372H116.398Z" fill="white"/>
<path d="M158.471 54.9001H136.978V29.1602H131.845V57.4664C131.845 58.8829 132.993 60.0329 134.412 60.0329H161.038C162.454 60.0329 163.604 58.8851 163.604 57.4664V45.8242H158.471V54.9001Z" fill="white"/>
<path d="M143.605 50.8396C142.187 50.8396 141.039 49.6896 141.039 48.2731H141.037V25.0975H131.958V19.9646H143.603C145.022 19.9646 146.169 21.1146 146.169 22.531V45.7089H154.408V50.8396H143.605Z" fill="white"/>
<path fill-rule="evenodd" clip-rule="evenodd" d="M242.016 29.1313H255.261C256.642 29.1313 257.76 30.2503 257.76 31.629V48.3441C257.76 49.7228 256.642 50.8417 255.261 50.8417H242.016C240.636 50.8417 239.518 49.7228 239.518 48.3441V31.629C239.518 30.2503 240.636 29.1313 242.016 29.1313ZM244.516 34.1266H252.762V45.8465H244.516V34.1266Z" fill="white"/>
<path fill-rule="evenodd" clip-rule="evenodd" d="M264.334 19.969H232.942C231.535 19.969 230.391 21.1101 230.391 22.5177V57.4532C230.391 58.8608 231.535 60.0018 232.942 60.0018H264.334C265.743 60.0018 266.883 58.8608 266.883 57.4532V22.5177C266.883 21.1101 265.743 19.969 264.334 19.969ZM261.786 54.9044H235.491V25.0686H261.786V54.9044Z" fill="white"/>
</g>
<defs>
<clipPath id="clip0_15_209">
<rect width="262" height="40.0706" fill="white" transform="translate(5 19.9646)"/>
</clipPath>
</defs>
</svg>
