<?xml version="1.0" standalone="no"?>
<!DOCTYPE svg PUBLIC "-//W3C//DTD SVG 20010904//EN"
 "http://www.w3.org/TR/2001/REC-SVG-20010904/DTD/svg10.dtd">
<svg version="1.0" xmlns="http://www.w3.org/2000/svg"
 width="400.000000pt" height="400.000000pt" viewBox="0 0 400.000000 400.000000"
 preserveAspectRatio="xMidYMid meet">

<g transform="translate(0.000000,400.000000) scale(0.100000,-0.100000)"
fill="#000000" stroke="none">
<path d="M0 2000 l0 -2000 2000 0 2000 0 0 2000 0 2000 -2000 0 -2000 0 0
-2000z m2291 1495 c460 -75 873 -434 1013 -881 60 -193 76 -422 43 -610 -73
-409 -332 -752 -712 -942 -383 -191 -858 -173 -1219 47 -37 22 -70 41 -72 41
-2 0 -5 -141 -6 -312 l-3 -313 -275 0 -275 0 0 930 c0 856 1 937 18 1015 59
282 212 551 411 722 303 262 677 367 1077 303z"/>
<path d="M1880 2927 c-114 -35 -216 -93 -299 -172 -132 -124 -208 -269 -231
-436 -21 -153 3 -289 77 -432 37 -71 66 -111 133 -178 73 -74 100 -93 190
-138 268 -132 547 -100 787 91 115 91 215 255 249 405 24 110 16 282 -19 381
-76 217 -248 390 -467 469 -65 23 -94 27 -210 30 -118 3 -144 0 -210 -20z
m305 -282 c32 -9 81 -28 108 -42 56 -31 148 -126 177 -184 123 -240 0 -531
-261 -619 -96 -33 -220 -26 -311 17 -72 34 -157 106 -193 163 -210 338 97 764
480 665z"/>
</g>
</svg>
