<svg width="204" height="80" viewBox="0 0 204 80" fill="none" xmlns="http://www.w3.org/2000/svg">
<path fill-rule="evenodd" clip-rule="evenodd" d="M147.871 41.3838H147.275L139.514 18.8794H130.424V19.8098L141.371 51.2369H153.443L164.394 19.8098V18.8794H155.7L147.868 41.3838H147.871Z" fill="white"/>
<path d="M128.005 18.8794H118.966V51.2335H128.005V18.8794Z" fill="white"/>
<path fill-rule="evenodd" clip-rule="evenodd" d="M191.244 18.876H191.25L183.418 41.3872H182.822L175.061 18.8794H165.972V19.8166L177.863 53.9601H166.602V61.4547H177.607C182.307 61.4547 185.968 59.8699 187.743 54.8121C187.982 54.1373 199.938 19.8098 199.938 19.8098V18.8726H191.244V18.876Z" fill="white"/>
<path fill-rule="evenodd" clip-rule="evenodd" d="M72.9041 18C68.7938 18 64.9527 20.0926 62.5567 24.0257H62.0012V18.9134H53.3853V61.4445H62.5397V47.1163H63.1021C63.1634 47.2015 63.2248 47.2902 63.2861 47.3617C64.83 49.2397 68.4359 52.1026 72.9211 52.1026C81.0838 52.1026 86.6664 45.0476 86.6664 35.0547C86.6664 25.0618 80.8077 18 72.9041 18ZM70.1707 45.0885C65.9104 45.0885 62.9691 41.7689 62.9691 35.0581C62.9691 28.3473 65.9104 25.0277 70.1707 25.0277C74.431 25.0277 77.5154 28.4189 77.5154 35.0581C77.5154 41.6973 74.5025 45.0885 70.1707 45.0885Z" fill="white"/>
<path fill-rule="evenodd" clip-rule="evenodd" d="M109.372 18.876C105.129 18.876 102.406 19.5849 100.814 24.0258H100.269V18.8794H87.1641V26.3093H90.0883C91.0528 26.3093 91.5266 26.6501 91.6493 27.4408V33.6165H91.6833V51.2369H100.838V34.0732C100.838 29.6289 102.044 26.9057 106.489 26.9057H116.079V18.876H109.375H109.372Z" fill="white"/>
<path d="M21.041 52.0924C30.4511 52.0924 38.0821 44.4614 38.0821 35.0513C38.0821 25.6412 30.4511 18.0103 21.041 18.0103C11.631 18.0103 4 25.6412 4 35.0513C4 44.4614 11.631 52.0924 21.041 52.0924Z" fill="white"/>
<path d="M21.0414 61.9999C27.4727 61.9999 32.6872 60.9025 32.6872 59.5562C32.6872 58.21 27.4761 57.1125 21.0414 57.1125C14.6067 57.1125 9.39551 58.21 9.39551 59.5562C9.39551 60.9025 14.6067 61.9999 21.0414 61.9999Z" fill="white"/>
</svg>
