<svg width="222" height="80" viewBox="0 0 222 80" fill="none" xmlns="http://www.w3.org/2000/svg">
<path d="M86.4659 45.8628V41.1558H97.6162C99.3212 41.1558 100.652 40.6713 101.606 39.7022C102.56 38.7331 103.038 37.4557 103.038 35.8762C103.038 34.2967 102.56 32.9941 101.606 32.0502C100.652 31.1063 99.3212 30.6344 97.6162 30.6344H82.9156V53.5998H78.1031V25.7669H97.6162C99.2205 25.7669 100.652 26.0029 101.914 26.4748C103.173 26.9468 104.237 27.6107 105.103 28.4665C105.97 29.3223 106.632 30.3606 107.09 31.5845C107.548 32.8085 107.778 34.1866 107.778 35.7189C107.778 37.2512 107.548 38.5947 107.09 39.8344C106.632 41.0709 105.97 42.1375 105.103 43.0311C104.237 43.9246 103.176 44.62 101.914 45.1171C100.655 45.6142 99.2205 45.8628 97.6162 45.8628H86.4659Z" fill="#E6DAFE"/>
<path d="M123.571 53.5935V43.028L108.833 25.767H115.362L126.17 38.5885L137.013 25.767H143.2L128.421 43.028V53.5935H123.571Z" fill="#E6DAFE"/>
<path d="M159.922 53.5935V30.6281H147.15V25.767H177.561V30.6281H164.772V53.5935H159.922Z" fill="#E6DAFE"/>
<path d="M207.902 25.7673H212.733V53.5938H207.902V25.7673Z" fill="#E6DAFE"/>
<path d="M187.056 53.5938V41.5494H205.03V37.2421H187.056V25.7673H182.225V53.5938H187.056Z" fill="#E6DAFE"/>
<path d="M43.3994 33.0427C43.3994 36.8845 40.2916 39.9994 36.4586 39.9994V46.956C44.1245 46.956 50.3401 40.7262 50.3401 33.0427C50.3401 25.3593 44.1245 19.1295 36.4586 19.1295C33.9316 19.1295 31.5585 19.806 29.518 20.9921C25.368 23.396 22.5773 27.8921 22.5773 33.0427V67.8261L28.818 74.0808L29.518 74.7826V33.0427C29.518 29.201 32.6257 26.0861 36.4586 26.0861C40.2916 26.0861 43.3994 29.201 43.3994 33.0427Z" fill="#E6DAFE"/>
<path d="M36.4585 5.21738C31.4013 5.21738 26.6611 6.57346 22.577 8.94269C19.9621 10.4561 17.6203 12.3848 15.6364 14.6408C11.3169 19.5459 8.69568 25.9897 8.69568 33.044V53.9138L15.6364 60.8705V33.044C15.6364 26.8645 18.3172 21.3111 22.577 17.4882C24.5798 15.6948 26.9311 14.2789 29.5178 13.3665C31.6869 12.5925 34.0256 12.174 36.4585 12.174C47.9572 12.174 57.2805 21.5187 57.2805 33.044C57.2805 44.5691 47.9572 53.9138 36.4585 53.9138V60.8705C51.7933 60.8705 64.2212 48.4109 64.2212 33.044C64.2212 17.677 51.7933 5.21738 36.4585 5.21738Z" fill="#E6DAFE"/>
</svg>
