<svg width="272" height="80" viewBox="0 0 272 80" fill="none" xmlns="http://www.w3.org/2000/svg">
<path d="M115.23 40.0031C115.23 41.1983 115.106 42.3455 114.859 43.4431C114.621 44.4991 114.259 45.5233 113.781 46.4943C113.328 47.4351 112.76 48.3165 112.091 49.1183C111.421 49.9092 110.653 50.6119 109.806 51.2095L116.622 58.6047H112.499C111.906 58.6047 111.366 58.5247 110.883 58.3647C110.382 58.1834 109.935 57.8778 109.584 57.4767L105.645 53.1503C105.005 53.3248 104.354 53.4547 103.696 53.5391C103.04 53.6255 102.352 53.6671 101.634 53.6671C99.6016 53.6671 97.7456 53.3295 96.0608 52.6511C94.445 51.998 92.9791 51.023 91.752 49.7855C90.5488 48.5428 89.6075 47.071 88.984 45.4575C88.328 43.7823 88 41.9631 88 40.0031C88 38.0431 88.328 36.2303 88.984 34.5663C89.6044 32.946 90.5459 31.4679 91.752 30.2207C92.9766 28.9845 94.4436 28.0148 96.0608 27.3727C97.7456 26.6847 99.6032 26.3375 101.634 26.3375C103.666 26.3375 105.515 26.6831 107.187 27.3743C108.799 28.024 110.26 28.9989 111.478 30.2383C112.687 31.4769 113.629 32.9498 114.246 34.5663C114.902 36.2303 115.23 38.0431 115.23 40.0031ZM110.104 40.0031C110.104 38.5359 109.906 37.2239 109.509 36.0639C109.125 34.8927 108.568 33.9007 107.837 33.0879C107.1 32.2691 106.185 31.6299 105.163 31.2191C104.123 30.7871 102.946 30.5727 101.634 30.5727C100.322 30.5727 99.1376 30.7887 98.0864 31.2191C97.0596 31.6324 96.1388 32.271 95.392 33.0879C94.6624 33.9007 94.0992 34.8927 93.7024 36.0639C93.3056 37.2239 93.1088 38.5359 93.1088 40.0031C93.1088 41.4703 93.3056 42.7887 93.7024 43.9599C94.0992 45.1183 94.6624 46.1039 95.392 46.9199C96.136 47.7199 97.0336 48.3359 98.0864 48.7679C99.1376 49.1999 100.322 49.4159 101.634 49.4159C102.946 49.4159 104.123 49.1999 105.163 48.7679C106.182 48.3594 107.095 47.7273 107.837 46.9183C108.568 46.1055 109.125 45.1183 109.509 43.9599C109.906 42.7887 110.104 41.4703 110.104 40.0031ZM121.632 34.3999V46.4559C121.632 47.6159 121.898 48.5151 122.43 49.1567C122.974 49.7855 123.786 50.1007 124.862 50.1007C125.656 50.1007 126.398 49.9263 127.091 49.5823C127.818 49.1995 128.482 48.7068 129.059 48.1215V34.3999H133.648V53.3727H130.843C130.25 53.3727 129.859 53.0943 129.674 52.5407L129.358 51.0239C128.97 51.4107 128.561 51.775 128.131 52.1151C127.708 52.4368 127.254 52.7155 126.776 52.9471C126.283 53.1767 125.767 53.3506 125.235 53.4655C124.657 53.6042 124.065 53.6724 123.47 53.6687C122.43 53.6687 121.507 53.4959 120.702 53.1503C119.93 52.8079 119.244 52.2961 118.696 51.6527C118.152 51.0127 117.736 50.2527 117.451 49.3775C117.17 48.4294 117.033 47.4446 117.043 46.4559V34.3999H121.632ZM141.946 34.3999V53.3727H137.36V34.3999H141.946ZM142.634 28.8719C142.634 29.2655 142.554 29.6351 142.392 29.9807C142.232 30.3263 142.014 30.6287 141.742 30.8863C141.474 31.1508 141.16 31.364 140.814 31.5151C140.449 31.665 140.057 31.7411 139.662 31.7391C139.266 31.7391 138.888 31.6639 138.528 31.5151C137.847 31.2037 137.3 30.6588 136.986 29.9791C136.836 29.6292 136.761 29.2523 136.763 28.8719C136.763 28.4639 136.838 28.0831 136.987 27.7247C137.147 27.3679 137.358 27.0591 137.618 26.7999C137.878 26.5407 138.182 26.3375 138.53 26.1903C138.888 26.0303 139.266 25.9503 139.661 25.9503C140.07 25.9503 140.454 26.0303 140.813 26.1903C141.173 26.3375 141.482 26.5423 141.741 26.7999C142.013 27.0591 142.23 27.3679 142.392 27.7247C142.552 28.0831 142.632 28.4655 142.632 28.8719H142.634ZM159.053 38.4127C158.917 38.5855 158.781 38.7215 158.643 38.8191C158.52 38.9183 158.334 38.9679 158.086 38.9679C157.843 38.9657 157.604 38.8953 157.398 38.7647C157.138 38.5946 156.872 38.4345 156.6 38.2847C156.249 38.0813 155.875 37.9196 155.486 37.8031C155.066 37.6543 154.539 37.5807 153.907 37.5807C153.102 37.5807 152.397 37.7295 151.79 38.0239C151.182 38.3087 150.675 38.7215 150.267 39.2639C149.846 39.86 149.543 40.5313 149.374 41.2415C149.166 42.0949 149.067 42.9712 149.078 43.8495C149.078 44.8607 149.184 45.7599 149.394 46.5487C149.618 47.3375 149.933 48.0047 150.341 48.5455C150.75 49.0767 151.245 49.4831 151.827 49.7663C152.41 50.0383 153.066 50.1727 153.795 50.1727C154.526 50.1727 155.115 50.0879 155.56 49.9151C156.019 49.7295 156.403 49.5311 156.712 49.3231C157.022 49.1007 157.288 48.9039 157.512 48.7311C157.732 48.5518 158.007 48.454 158.291 48.4543C158.662 48.4543 158.941 48.5951 159.126 48.8783L160.446 50.5423C159.938 51.1343 159.387 51.6351 158.792 52.0415C158.211 52.4288 157.588 52.7508 156.936 53.0015C156.299 53.2376 155.639 53.4055 154.966 53.5023C154.296 53.6 153.619 53.6492 152.941 53.6495C151.801 53.6568 150.67 53.437 149.616 53.0031C148.58 52.5622 147.65 51.9067 146.886 51.0799C146.118 50.2415 145.506 49.2175 145.046 48.0095C144.602 46.7903 144.379 45.4015 144.379 43.8495C144.379 42.4575 144.578 41.1679 144.973 39.9855C145.35 38.8448 145.957 37.7938 146.757 36.8975C147.558 36.007 148.547 35.3058 149.653 34.8447C150.805 34.3519 152.131 34.1039 153.629 34.1039C155.053 34.1039 156.298 34.3327 157.362 34.7887C158.445 35.2488 159.429 35.9144 160.259 36.7487L159.053 38.4127ZM166.522 25.8943V41.6303H167.376C167.686 41.6303 167.926 41.5871 168.101 41.5023C168.316 41.3798 168.505 41.2162 168.658 41.0207L173.394 35.1967C173.605 34.9487 173.827 34.7583 174.062 34.6223C174.298 34.4751 174.608 34.3999 174.992 34.3999H179.189L173.264 41.4463C173.06 41.6976 172.844 41.9379 172.614 42.1663C172.392 42.3754 172.149 42.5614 171.89 42.7215C172.15 42.9071 172.379 43.1215 172.578 43.3679C172.774 43.6143 172.973 43.8799 173.171 44.1631L179.523 53.3727H175.382C175.022 53.3727 174.718 53.3103 174.472 53.1871C174.198 53.0395 173.967 52.8227 173.803 52.5583L168.955 45.3663C168.77 45.0815 168.584 44.8975 168.398 44.8111C168.211 44.7247 167.934 44.6815 167.562 44.6815H166.522V53.3727H161.934V25.8943H166.522ZM183.768 26.6335C183.99 26.6335 184.178 26.6463 184.325 26.6703C184.461 26.6792 184.595 26.7174 184.715 26.7823C184.848 26.8374 184.969 26.919 185.069 27.0223C185.179 27.1215 185.304 27.2559 185.44 27.4287L199.538 45.3103C199.488 44.8783 199.451 44.4591 199.427 44.0527C199.415 43.6645 199.408 43.2762 199.408 42.8879V26.6335H203.81V53.3727H201.229C200.891 53.3839 200.554 53.3206 200.243 53.1871C199.984 53.0639 199.73 52.8415 199.482 52.5215L185.44 34.7135C185.477 35.1087 185.502 35.5039 185.514 35.8975C185.539 36.2815 185.552 36.6319 185.552 36.9535V53.3727H181.149V26.6335H183.768ZM215.618 34.1039C217.042 34.1039 218.33 34.3327 219.482 34.7887C220.645 35.2447 221.637 35.8927 222.453 36.7295C223.295 37.6073 223.941 38.6538 224.349 39.7999C224.794 41.0079 225.016 42.3583 225.016 43.8479C225.016 45.3519 224.794 46.7087 224.349 47.9167C223.938 49.0666 223.293 50.1183 222.453 51.0047C221.618 51.8677 220.603 52.5372 219.482 52.9663C218.33 53.4223 217.042 53.6495 215.618 53.6495C214.194 53.6495 212.901 53.4223 211.736 52.9663C210.61 52.5347 209.59 51.8656 208.746 51.0047C207.905 50.1159 207.254 49.0652 206.832 47.9167C206.387 46.7087 206.163 45.3535 206.163 43.8495C206.163 42.3583 206.387 41.0079 206.832 39.7999C207.291 38.5919 207.928 37.5679 208.746 36.7295C209.594 35.8789 210.613 35.2175 211.736 34.7887C212.901 34.3327 214.194 34.1039 215.618 34.1039ZM215.618 50.1359C217.203 50.1359 218.373 49.6063 219.128 48.5455C219.896 47.4863 220.28 45.9327 220.28 43.8863C220.28 41.8399 219.896 40.2799 219.128 39.2079C218.373 38.1359 217.203 37.5999 215.618 37.5999C214.008 37.5999 212.819 38.1423 212.051 39.2271C211.285 40.2991 210.901 41.8511 210.901 43.8863C210.901 45.9199 211.285 47.4735 212.051 48.5455C212.819 49.6063 214.008 50.1359 215.618 50.1359ZM240.522 53.3727C239.926 53.3727 239.536 53.0943 239.35 52.5407L238.979 50.7103C238.595 51.1412 238.179 51.5424 237.734 51.9103C237.299 52.2695 236.826 52.5802 236.323 52.8367C235.812 53.1015 235.269 53.3004 234.707 53.4287C234.1 53.5808 233.476 53.655 232.85 53.6495C231.81 53.6495 230.856 53.4335 229.989 53.0031C229.108 52.5591 228.339 51.92 227.742 51.1343C227.123 50.3087 226.64 49.2927 226.293 48.0831C225.958 46.8751 225.792 45.4959 225.792 43.9423C225.792 42.5359 225.984 41.2303 226.368 40.0223C226.752 38.8143 227.302 37.7663 228.021 36.8783C228.719 36.0074 229.6 35.3006 230.602 34.8079C231.605 34.3023 232.733 34.0495 233.982 34.0495C235.048 34.0495 235.958 34.2223 236.714 34.5663C237.469 34.8991 238.144 35.3503 238.738 35.9167V25.8943H243.326V53.3727H240.522ZM234.41 50.0255C235.363 50.0255 236.174 49.8287 236.843 49.4335C237.512 49.0399 238.144 48.4783 238.738 47.7503V39.2447C238.218 38.6159 237.648 38.1727 237.029 37.9135C236.406 37.6512 235.736 37.5189 235.061 37.5247C234.366 37.5247 233.736 37.6543 233.166 37.9135C232.597 38.1812 232.105 38.5885 231.736 39.0975C231.352 39.6143 231.054 40.2815 230.843 41.0943C230.634 41.8943 230.528 42.8447 230.528 43.9423C230.528 45.0511 230.614 45.9951 230.789 46.7711C230.974 47.5359 231.234 48.1631 231.568 48.6575C231.902 49.1375 232.31 49.4895 232.794 49.7119C233.277 49.9199 233.816 50.0255 234.41 50.0255ZM254.686 34.1039C255.888 34.1039 256.989 34.2959 257.992 34.6783C258.977 35.0406 259.872 35.6146 260.611 36.3599C261.368 37.1272 261.951 38.0483 262.32 39.0607C262.73 40.1199 262.933 41.3343 262.933 42.7023C262.933 43.0479 262.915 43.3375 262.878 43.5727C262.863 43.7617 262.806 43.9449 262.71 44.1087C262.637 44.2315 262.527 44.3283 262.395 44.3855C262.227 44.4394 262.051 44.4643 261.875 44.4591H250.099C250.235 46.4079 250.762 47.8367 251.677 48.7503C252.594 49.6623 253.806 50.1183 255.318 50.1183C256.061 50.1183 256.699 50.0319 257.23 49.8591C257.717 49.7105 258.19 49.5188 258.643 49.2863C259.051 49.0767 259.405 48.8863 259.701 48.7119C259.971 48.551 260.279 48.4624 260.594 48.4543C260.761 48.4499 260.927 48.4879 261.075 48.5647C261.215 48.6411 261.336 48.7483 261.429 48.8783L262.766 50.5423C262.259 51.1343 261.69 51.6351 261.058 52.0415C260.432 52.4324 259.766 52.7543 259.07 53.0015C258.389 53.2364 257.686 53.4041 256.971 53.5023C256.288 53.5991 255.599 53.6483 254.909 53.6495C253.648 53.661 252.395 53.4419 251.213 53.0031C250.096 52.5736 249.083 51.9115 248.242 51.0607C247.398 50.1967 246.736 49.1375 246.253 47.8799C245.771 46.6111 245.53 45.1439 245.53 43.4799C245.53 42.1839 245.739 40.9711 246.16 39.8367C246.556 38.7339 247.169 37.7219 247.963 36.8607C248.773 35.9973 249.753 35.3109 250.842 34.8447C251.981 34.3519 253.262 34.1039 254.686 34.1039ZM254.779 37.3775C253.442 37.3775 252.395 37.7535 251.64 38.5055C250.885 39.2575 250.402 40.3231 250.192 41.7055H258.81C258.81 41.1135 258.73 40.5583 258.568 40.0415C258.419 39.5322 258.167 39.0593 257.826 38.6527C257.482 38.2507 257.049 37.9342 256.562 37.7279C256.054 37.4943 255.461 37.3775 254.779 37.3775Z" fill="white"/>
<mask id="mask0_15_78" style="mask-type:luminance" maskUnits="userSpaceOnUse" x="8" y="8" width="64" height="64">
<path d="M8 8H72V72H8V8Z" fill="white"/>
</mask>
<g mask="url(#mask0_15_78)">
<path fill-rule="evenodd" clip-rule="evenodd" d="M40 60C45.2192 60.0071 50.233 57.9672 53.9648 54.3184C54.0624 54.2224 54.2208 54.2224 54.3184 54.3184L62.6272 62.6272L71.2512 71.2512C71.4384 71.4384 71.2464 71.7472 70.9952 71.6656L57.232 67.0768C57.1967 67.0653 57.1593 67.0618 57.1226 67.0665C57.0858 67.0712 57.0505 67.084 57.0192 67.104C51.923 70.312 46.0218 72.0097 40 72C22.3264 72 8 57.6736 8 40C8 22.3264 22.3264 8 40 8C57.6736 8 72 22.3264 72 40C72 47.5488 69.3872 54.4864 65.0144 59.9584C64.9925 59.9854 64.9652 60.0075 64.9343 60.0232C64.9033 60.039 64.8694 60.0481 64.8347 60.0499C64.8 60.0517 64.7653 60.0462 64.7329 60.0337C64.7004 60.0213 64.671 60.0022 64.6464 59.9776L47.7488 43.0816C47.5616 42.896 47.7536 42.5856 48.0048 42.6688L58.7408 46.2464C58.7719 46.2569 58.8047 46.2611 58.8375 46.2588C58.8702 46.2565 58.9022 46.2478 58.9315 46.233C58.9608 46.2183 58.9869 46.1979 59.0083 46.173C59.0296 46.1481 59.0459 46.1192 59.056 46.088C59.6688 44.168 60 42.1232 60 40C60 28.9536 51.0464 20 40 20C28.9536 20 20 28.9536 20 40C20 51.0464 28.9536 60 40 60Z" fill="#00A4D6"/>
</g>
</svg>
