<svg width="322" height="80" viewBox="0 0 322 80" fill="none" xmlns="http://www.w3.org/2000/svg">
<g clip-path="url(#clip0_31_258)">
<mask id="mask0_31_258" style="mask-type:luminance" maskUnits="userSpaceOnUse" x="4" y="12" width="314" height="56">
<path d="M318 12.0411H4V67.6453H318V12.0411Z" fill="white"/>
</mask>
<g mask="url(#mask0_31_258)">
<path d="M111.043 53.9257L108.781 47.0144C107.971 45.0698 107.307 43.9693 105.989 43.4723V43.0856C110.751 41.3263 113.477 37.3777 113.477 32.2338C113.477 24.8691 108.018 20.1078 99.5712 20.1078H83.2434V61.4245H89.968V46.0165H99.6263C101.042 46.0165 101.349 46.2531 101.974 47.8192L105.391 57.2706C106.862 60.8406 107.798 61.4245 112.069 61.4245H114.358V55.0655H112.73C111.683 55.0655 111.459 54.9156 111.043 53.9216V53.9257ZM89.972 26.4154H98.6944C103.425 26.4154 106.481 29.0702 106.481 33.1766C106.481 37.0542 103.637 39.6617 99.4101 39.6617H89.972V26.4154Z" fill="#AE0822"/>
<path d="M129.741 31.7644C121.393 31.7644 115.781 37.8785 115.781 46.983C115.781 56.0873 121.503 62.2015 130.017 62.2015C136.643 62.2015 142.007 58.3436 143.367 52.6082L143.426 52.3634H137.429L137.378 52.4858C136.285 55.1761 133.615 56.7816 130.237 56.7816C125.589 56.7816 122.474 53.8388 121.868 48.8922H143.812V46.983C143.812 37.8785 138.157 31.7644 129.741 31.7644ZM129.741 37.2396C134.13 37.2396 137.008 40.0088 137.665 44.8528H121.872C122.529 40.0127 125.388 37.2396 129.741 37.2396Z" fill="#AE0822"/>
<path d="M167.589 36.5137H167.239C165.454 33.4921 162.273 31.7643 158.482 31.7643C155.304 31.7643 152.48 32.9201 150.31 35.1095C147.577 37.8708 146.086 42.0876 146.118 46.9828C146.118 55.9451 151.202 62.2015 158.482 62.2015C162.406 62.2015 165.548 60.4579 167.349 57.2863H167.589V61.4283H173.928V20.1118H167.589V36.5137ZM160.023 56.2845C155.564 56.2845 152.567 52.5449 152.567 46.9828C152.567 41.4209 155.564 37.7366 160.023 37.7366C164.483 37.7366 167.534 41.4525 167.534 46.9828C167.534 52.5133 164.514 56.2845 160.023 56.2845Z" fill="#AE0822"/>
<path d="M198.353 37.6183L191.577 36.6794C187.747 36.206 185.639 34.293 185.639 31.2989C185.639 27.65 188.856 25.2004 193.646 25.2004C198.435 25.2004 201.869 27.8236 202.592 32.214L202.62 32.3797H209.679L209.643 32.1549C208.455 24.2182 202.285 19.2834 193.539 19.2834C184.793 19.2834 178.753 24.3129 178.753 31.7959C178.753 38.0087 182.949 42.1232 190.264 43.0936L197.09 44.0323C201.239 44.5728 203.524 46.62 203.524 49.7994C203.524 53.6493 200.005 56.3396 194.967 56.3396C189.446 56.3396 185.493 53.1011 184.644 47.8902L184.617 47.7244H177.668L177.703 47.9532C179.04 56.608 185.859 62.2015 195.073 62.2015C204.287 62.2015 210.465 56.8958 210.465 49.3024C210.465 42.8411 206.163 38.6911 198.349 37.6183H198.353Z" fill="#AE0822"/>
<path d="M222.873 25.4134H216.588V32.5927H211.138V38.1783H216.533V55.4324C216.533 59.523 218.433 61.4283 222.512 61.4283H229.314V55.7875H223.998C223.23 55.7875 222.873 55.4285 222.873 54.6592V38.1783H229.314V32.5927H222.873V25.4134Z" fill="#AE0822"/>
<path d="M244.722 31.7644C236.173 31.7644 230.43 37.8785 230.43 46.983C230.43 56.0873 236.173 62.2015 244.722 62.2015C253.271 62.2015 258.957 56.0873 258.957 46.983C258.957 37.8785 253.236 31.7644 244.722 31.7644ZM244.722 56.2845C240.031 56.2845 236.88 52.5449 236.88 46.983C236.88 41.4209 240.031 37.7366 244.722 37.7366C249.412 37.7366 252.507 41.4526 252.507 46.983C252.507 52.5133 249.378 56.2845 244.722 56.2845Z" fill="#AE0822"/>
<path d="M277.201 31.7644C273.507 31.7644 270.237 33.7249 268.442 37.0107H268.149V32.5928H262.14V61.4283H268.48V46.7069C268.48 41.5078 271.124 38.0127 275.055 38.0127C278.649 38.0127 280.969 40.711 280.969 44.8844V61.4283H287.31V42.3993C287.31 36.0365 283.247 31.7644 277.201 31.7644Z" fill="#AE0822"/>
<path d="M317.998 46.983C317.998 37.8785 312.343 31.7644 303.928 31.7644C295.512 31.7644 289.968 37.8785 289.968 46.983C289.968 56.0873 295.689 62.2015 304.203 62.2015C310.829 62.2015 316.193 58.3436 317.555 52.6082L317.613 52.3634H311.617L311.565 52.4858C310.472 55.1761 307.801 56.7816 304.423 56.7816C299.775 56.7816 296.661 53.8388 296.054 48.8922H317.998V46.983ZM303.932 37.2396C308.32 37.2396 311.199 40.0088 311.855 44.8528H296.063C296.719 40.0127 299.579 37.2396 303.932 37.2396Z" fill="#AE0822"/>
<path d="M55.8465 12.1357L55.7873 12.0411H22.3688L5.573 39.8432L22.3098 67.5505L22.3688 67.6453H55.7873L72.5831 39.8432L55.8465 12.1357ZM27.3748 24.3209L19.3132 37.6656H11.6605L23.5289 18.0212L27.371 24.3209H27.3748ZM30.9142 57.1683H47.2183L51.033 63.5506H27.0995L30.9142 57.1683ZM47.2616 22.2578H30.8985L27.1626 16.1357H50.9936L47.2577 22.2578H47.2616ZM30.9181 53.0736L22.8486 39.7131L30.9181 26.3524H47.234L55.3036 39.7131L47.234 53.0736H30.9181ZM58.843 37.6656L50.7852 24.3248L54.6272 18.0251L66.4917 37.6656H58.843ZM27.3828 55.1208L23.5014 61.6178L11.5072 41.7642H19.3132L27.3828 55.1208ZM66.653 41.7603L54.647 61.6335L50.7655 55.1367L58.8469 41.7603H66.653Z" fill="#AE0822"/>
</g>
</g>
<defs>
<clipPath id="clip0_31_258">
<rect width="314" height="55.9178" fill="white" transform="translate(4 12.0411)"/>
</clipPath>
</defs>
</svg>
