<?xml version="1.0" standalone="no"?>
<!DOCTYPE svg PUBLIC "-//W3C//DTD SVG 20010904//EN"
 "http://www.w3.org/TR/2001/REC-SVG-20010904/DTD/svg10.dtd">
<svg version="1.0" xmlns="http://www.w3.org/2000/svg"
 width="1280.000000pt" height="960.000000pt" viewBox="0 0 1280.000000 960.000000"
 preserveAspectRatio="xMidYMid meet">

<g transform="translate(0.000000,960.000000) scale(0.100000,-0.100000)"
fill="#000000" stroke="none">
<path d="M0 4800 l0 -4800 6400 0 6400 0 0 674 c0 371 -4 677 -9 680 -14 9
-227 72 -336 100 -55 14 -165 37 -245 50 -80 14 -166 29 -191 35 -109 25 -382
63 -619 86 -140 14 -309 32 -375 40 -66 8 -181 19 -256 25 -75 6 -240 24 -368
40 -128 17 -271 30 -319 30 -69 0 -94 4 -120 20 -31 19 -35 20 -83 4 -63 -21
-212 -14 -370 16 -189 36 -575 89 -731 100 -84 6 -209 15 -277 21 -134 11
-257 4 -281 -16 -8 -7 -64 -37 -125 -67 -60 -30 -184 -93 -275 -140 -91 -48
-246 -123 -345 -168 -99 -45 -259 -122 -355 -170 -96 -48 -220 -107 -275 -130
-55 -23 -185 -84 -290 -135 -256 -126 -579 -254 -868 -346 l-59 -19 -81 24
c-45 13 -152 38 -237 55 -208 41 -544 121 -710 169 -74 22 -256 74 -405 116
-357 102 -501 145 -732 217 -51 16 -129 38 -175 50 -46 11 -126 33 -178 49
-52 15 -156 46 -230 68 -74 22 -187 55 -250 72 -63 18 -191 56 -285 85 -93 29
-184 56 -201 59 -17 4 -41 17 -52 29 -40 42 -239 472 -326 702 -48 127 -101
264 -118 305 -33 82 -105 286 -197 560 -64 189 -165 462 -203 550 -14 30 -48
132 -76 225 -29 94 -66 211 -83 260 -63 190 -79 250 -79 305 0 51 3 59 34 90
l35 33 211 -7 c206 -7 269 -13 615 -55 191 -23 584 -65 750 -80 494 -45 651
-61 750 -77 86 -13 347 -41 595 -65 128 -12 440 -56 464 -65 23 -9 64 -84 87
-161 12 -37 39 -112 60 -166 22 -54 57 -171 80 -260 22 -89 49 -193 61 -231
l20 -69 17 50 c54 161 246 360 467 487 105 61 98 28 64 306 -22 175 -25 235
-25 575 0 352 2 389 23 505 40 224 116 507 196 735 l44 123 -53 73 c-58 80
-91 164 -80 206 l6 26 85 -7 c61 -4 84 -3 84 6 0 6 -14 33 -31 59 -56 88 -103
255 -79 284 15 18 72 19 154 4 32 -6 60 -9 62 -6 2 2 -7 34 -21 71 -14 36 -25
84 -25 106 0 41 12 52 82 74 36 11 32 50 -10 106 -58 76 -79 163 -49 204 7 9
33 21 57 27 70 15 210 61 210 68 0 4 -14 47 -30 96 -32 94 -38 170 -17 199 11
15 31 18 145 19 73 1 132 4 132 7 -1 3 -9 30 -20 60 -22 63 -26 123 -7 138 6
5 56 13 110 17 l98 7 51 76 c63 95 323 357 468 472 213 169 516 348 780 463
102 44 454 161 575 191 33 8 83 18 110 21 28 4 85 13 129 21 108 19 416 19
482 -1 26 -8 59 -12 71 -9 13 4 48 -3 81 -17 157 -63 268 -175 377 -381 105
-200 156 -355 204 -623 62 -343 98 -947 68 -1163 -12 -93 -12 -104 2 -112 29
-15 134 -39 226 -51 160 -20 315 -82 365 -146 50 -64 136 -204 178 -291 39
-80 46 -104 50 -170 3 -52 -1 -98 -12 -141 -20 -76 -115 -271 -178 -362 -32
-47 -44 -74 -41 -91 6 -31 -40 -268 -73 -378 -30 -98 -70 -181 -128 -264 -22
-33 -50 -78 -61 -100 -23 -47 -45 -60 -135 -77 -40 -8 -75 -21 -90 -35 -39
-35 -89 -52 -191 -65 -156 -19 -224 -6 -419 81 -102 46 -181 96 -244 154 -22
20 -45 36 -51 36 -6 0 -51 -14 -101 -31 -49 -16 -121 -37 -161 -44 -39 -8 -98
-28 -130 -44 -32 -16 -114 -57 -183 -91 -111 -55 -134 -71 -205 -143 -167
-169 -207 -246 -209 -397 -1 -94 -1 -95 38 -155 21 -33 76 -109 121 -170 108
-144 116 -162 123 -260 9 -159 -54 -339 -163 -465 -93 -107 -133 -164 -156
-218 -12 -29 -20 -55 -17 -58 3 -3 36 3 73 12 59 15 85 16 210 6 214 -16 251
-4 404 131 41 37 101 80 134 98 32 17 60 36 63 43 10 27 -109 341 -207 546
-119 246 -303 550 -416 686 -63 76 -78 116 -48 128 44 17 121 -66 267 -289
214 -328 375 -654 478 -968 l22 -68 66 3 67 3 7 65 c12 104 -20 408 -57 555
-12 50 -52 156 -89 238 -36 81 -66 151 -66 154 0 10 -112 256 -192 424 -39 81
-68 154 -65 162 5 14 55 29 68 21 4 -2 36 -64 73 -139 36 -74 74 -138 84 -143
9 -5 35 -12 57 -15 176 -26 533 -131 660 -195 74 -37 180 -108 206 -139 28
-32 30 -52 7 -75 -19 -19 -28 -20 -107 -15 -51 4 -146 23 -233 46 -195 53
-449 112 -464 109 -9 -2 -5 -19 14 -58 l27 -55 56 -6 c51 -5 169 -43 364 -116
39 -14 117 -50 175 -78 186 -93 247 -171 163 -210 -69 -33 -203 -1 -517 124
-71 28 -131 49 -133 47 -3 -2 2 -31 10 -63 8 -32 20 -89 27 -128 15 -89 26
-115 45 -115 44 0 486 -209 550 -260 114 -91 87 -158 -60 -148 -52 3 -80 12
-147 48 -183 96 -275 140 -309 146 l-36 6 -7 -96 c-4 -53 -5 -100 -1 -106 3
-5 22 -12 43 -16 202 -37 595 -271 807 -480 70 -70 171 -245 218 -382 27 -80
29 -94 24 -187 -9 -176 -59 -311 -164 -442 l-34 -42 33 -5 c18 -3 83 -10 143
-16 61 -6 187 -22 280 -36 94 -13 233 -29 310 -34 77 -6 147 -11 155 -12 8 0
26 0 39 0 24 2 24 3 18 85 -4 45 -11 195 -17 332 -6 138 -17 297 -25 355 -31
214 -249 1010 -343 1250 -64 162 -177 442 -287 705 -120 290 -175 398 -246
487 -21 26 -21 28 -5 52 9 14 22 26 28 26 20 0 86 -77 130 -152 62 -108 367
-800 402 -915 5 -16 20 -26 49 -33 65 -17 116 -40 352 -162 234 -121 260 -137
596 -375 229 -162 236 -169 521 -478 212 -231 264 -300 364 -491 31 -60 75
-140 97 -178 93 -161 147 -306 150 -404 2 -53 0 -57 -33 -80 -55 -38 -124 -26
-280 47 -181 86 -293 138 -395 183 -239 107 -625 239 -625 214 0 -3 9 -23 21
-45 24 -46 19 -74 -17 -98 -24 -15 -111 -15 -314 0 l-25 2 3 -165 c2 -91 7
-169 12 -173 10 -11 101 -23 315 -42 187 -17 362 -43 675 -100 102 -18 205
-37 230 -40 66 -10 320 -78 448 -120 9 -4 12 815 12 4070 l0 4075 -6400 0
-6400 0 0 -4800z m10000 -3572 c11 -18 24 -57 30 -88 6 -30 18 -78 26 -106
l14 -52 34 34 c39 39 56 42 81 14 22 -24 24 -88 3 -102 -7 -5 -32 -7 -55 -6
-24 2 -43 2 -43 1 0 -1 11 -62 24 -135 39 -217 39 -213 21 -232 -23 -23 -54
-20 -65 6 -5 13 -19 68 -31 123 -12 55 -25 104 -29 108 -16 19 -16 -33 1 -103
25 -104 25 -201 0 -224 -11 -10 -30 -16 -43 -14 -21 3 -23 9 -25 58 -4 93 -23
190 -38 190 -15 0 -74 -35 -110 -65 -22 -18 -25 -30 -32 -150 l-8 -130 -30 0
c-42 0 -55 32 -55 138 0 69 -3 89 -15 93 -23 9 -18 41 11 67 24 23 27 34 39
173 23 242 34 303 60 320 12 8 29 12 38 8 19 -7 83 -128 127 -241 27 -67 36
-82 57 -86 24 -4 25 -3 19 37 -4 22 -24 102 -45 176 -21 74 -41 148 -45 163
-15 61 50 80 84 25z m608 -159 c14 -6 31 -27 44 -56 11 -27 27 -56 35 -65 8
-9 13 -27 11 -40 -3 -20 -8 -23 -44 -20 -35 2 -44 -2 -58 -23 -15 -23 -23 -26
-64 -23 -39 2 -49 -1 -57 -17 -24 -46 -85 -22 -85 32 0 13 -4 23 -10 23 -6 0
-10 -28 -10 -64 0 -70 -12 -90 -52 -84 -30 4 -57 80 -58 161 0 50 2 57 19 57
11 0 33 11 49 25 31 26 95 35 107 15 12 -19 25 -10 41 30 27 67 55 77 132 49z
m-412 -197 c22 -14 32 -49 36 -122 l3 -75 -31 -3 c-39 -4 -48 9 -62 88 -16 89
-9 109 38 119 3 0 10 -3 16 -7z m777 -26 c10 -25 -4 -54 -31 -65 -15 -5 -61
-20 -102 -31 -104 -30 -281 -116 -403 -196 -56 -37 -158 -97 -227 -134 -144
-77 -397 -230 -518 -313 -46 -31 -95 -60 -109 -63 -70 -18 -110 46 -48 75 17
8 62 34 100 59 101 65 226 142 231 142 3 0 35 19 72 43 87 56 183 112 203 120
9 3 95 53 193 111 234 140 296 171 451 222 138 46 180 53 188 30z m-477 -400
c13 -55 -51 -93 -76 -45 -15 26 -7 47 22 59 37 14 47 12 54 -14z m-126 -42
c17 -43 12 -63 -15 -70 -27 -7 -55 9 -55 31 0 16 38 65 51 65 5 0 14 -12 19
-26z"/>
<path d="M9817 888 c-3 -13 -9 -52 -13 -86 l-7 -64 42 22 c46 23 46 23 10 108
-21 48 -25 51 -32 20z"/>
<path d="M8560 9295 c-8 -2 -67 -11 -130 -20 -112 -17 -246 -46 -302 -65 -16
-6 -42 -15 -58 -21 l-31 -12 38 -18 c232 -110 237 -113 318 -194 71 -70 88
-95 143 -205 105 -211 145 -395 199 -903 3 -32 9 -60 13 -62 5 -3 28 4 51 15
54 24 151 26 233 5 111 -29 185 -73 277 -166 98 -99 129 -154 136 -242 7 -90
-13 -239 -43 -311 -67 -161 -188 -301 -311 -359 -63 -29 -76 -32 -163 -31 -91
1 -110 6 -211 48 -14 6 -20 -3 -32 -41 -24 -73 -76 -286 -97 -398 -43 -222
-76 -629 -68 -828 7 -151 42 -317 68 -317 45 0 281 70 303 90 5 4 -5 29 -20
56 -37 62 -76 167 -108 291 -21 82 -25 120 -25 239 0 168 18 280 66 419 38
110 70 167 157 283 82 110 168 177 292 227 64 26 82 29 197 29 l126 1 5 25 c3
14 14 70 25 125 43 211 47 249 47 480 0 301 -26 637 -65 840 -11 55 -24 130
-30 166 -23 152 -110 388 -203 549 -77 135 -248 287 -293 262 -12 -7 -31 -2
-68 17 -48 25 -57 26 -236 28 -102 1 -192 0 -200 -2z"/>
<path d="M7715 9070 c-273 -120 -578 -301 -785 -464 -119 -94 -326 -294 -418
-404 -36 -43 -41 -53 -27 -58 18 -7 33 0 108 46 58 36 215 85 322 99 332 47
539 -34 713 -277 165 -230 274 -545 302 -872 6 -64 17 -159 26 -211 21 -129
29 -481 15 -670 -7 -85 -23 -241 -36 -348 l-25 -194 20 -86 c11 -47 31 -151
45 -231 41 -232 101 -468 126 -494 5 -6 19 0 36 16 45 41 111 81 233 142 63
32 119 61 124 66 4 4 -1 35 -12 67 -45 131 -55 222 -48 458 13 480 48 702 173
1088 21 67 23 80 11 96 -63 87 -82 119 -103 176 -47 125 -48 335 -2 460 22 61
75 146 118 190 l38 40 -13 45 c-19 63 -52 281 -66 430 -26 284 -151 625 -272
741 -116 112 -255 169 -423 176 -105 4 -113 2 -180 -27z m-1175 -878 c0 -10
-22 -32 -32 -32 -5 0 -3 9 4 20 13 20 28 27 28 12z"/>
<path d="M6925 8200 c-127 -22 -174 -35 -204 -56 -21 -15 -71 -110 -71 -136 0
-27 103 3 250 73 160 76 260 128 260 135 0 10 -144 1 -235 -16z"/>
<path d="M7283 8168 c-104 -132 -178 -291 -145 -312 5 -3 40 -1 77 5 50 7 103
25 187 66 65 31 118 62 118 69 0 21 -92 116 -147 151 -56 36 -75 40 -90 21z"/>
<path d="M6240 8033 c0 -10 8 -35 18 -55 l17 -38 43 36 c23 20 47 44 53 55 9
18 5 19 -61 19 -60 0 -70 -2 -70 -17z"/>
<path d="M6945 7994 c-121 -56 -234 -94 -278 -94 -64 0 -127 62 -114 112 25
93 -286 -213 -458 -451 -72 -99 -138 -194 -189 -271 -27 -41 -56 -80 -64 -86
-8 -6 -11 -14 -6 -17 11 -6 207 -57 222 -57 5 0 12 42 14 93 5 83 10 104 54
207 48 111 51 115 83 118 42 4 72 -16 112 -75 55 -81 123 -162 131 -157 4 3
16 25 27 50 24 54 137 170 175 180 62 15 161 -65 245 -199 l43 -68 62 54 c166
145 211 164 275 116 56 -41 110 -192 111 -306 l0 -43 43 6 c37 5 47 2 75 -21
18 -15 39 -39 46 -54 31 -60 79 -351 69 -418 -5 -32 -4 -33 30 -33 52 0 88
-36 120 -117 36 -96 45 -135 53 -241 9 -120 27 -108 32 23 3 73 1 95 -8 93
-16 -4 -42 70 -36 98 4 14 -5 36 -27 64 -70 93 -79 107 -103 152 -13 26 -24
60 -24 76 0 33 45 100 90 133 16 13 30 28 30 33 0 6 -23 31 -50 54 -28 24 -85
83 -127 130 -72 83 -75 89 -70 128 4 40 36 113 91 207 16 26 26 50 24 52 -2 3
-30 0 -61 -5 -105 -17 -168 23 -188 118 -11 54 -8 177 6 219 l7 21 -78 -24
c-95 -31 -228 -41 -264 -22 -44 24 -52 56 -36 139 8 41 19 86 25 102 14 37 5
36 -114 -19z"/>
<path d="M7561 7845 c-54 -62 -71 -106 -71 -189 0 -99 3 -106 52 -106 44 0
158 27 172 40 5 5 -4 41 -19 82 -28 74 -92 208 -99 208 -2 0 -18 -16 -35 -35z"/>
<path d="M5993 7814 c-7 -18 15 -118 31 -140 10 -13 23 -2 78 62 37 43 64 82
62 86 -3 4 -41 8 -85 8 -63 0 -81 -3 -86 -16z"/>
<path d="M8865 7731 c-16 -10 -48 -38 -70 -61 -22 -23 -57 -53 -77 -66 -21
-13 -38 -28 -38 -33 0 -5 39 -8 88 -8 78 1 93 -2 147 -28 119 -60 222 -183
260 -312 8 -27 19 -91 25 -142 6 -52 12 -97 14 -98 2 -2 15 15 29 39 62 107
77 148 87 235 18 157 15 182 -28 249 -46 71 -137 156 -202 189 -42 21 -161 55
-193 55 -7 0 -25 -9 -42 -19z"/>
<path d="M5825 7461 c-57 -16 -60 -18 -57 -46 3 -32 27 -75 40 -75 5 0 18 17
30 39 12 21 29 44 37 51 9 8 21 22 26 32 12 22 5 22 -76 -1z"/>
<path d="M6627 7418 c-34 -38 -72 -116 -82 -170 -8 -45 -6 -46 100 -23 39 8
98 15 133 15 34 0 62 3 62 8 0 16 -74 129 -108 165 -44 45 -65 46 -105 5z"/>
<path d="M7713 7364 c-71 -97 -88 -135 -84 -182 1 -15 167 -189 194 -204 19
-10 19 -6 13 94 -7 110 -41 297 -61 337 -11 22 -13 21 -62 -45z"/>
<path d="M6216 7383 c-36 -73 -49 -137 -40 -213 7 -57 13 -75 24 -74 29 3 195
55 204 64 6 6 -10 38 -40 82 -72 106 -118 167 -126 167 -4 1 -14 -11 -22 -26z"/>
<path d="M7180 7363 c-53 -36 -136 -113 -152 -141 l-18 -29 121 -114 c66 -63
124 -115 129 -117 22 -8 35 136 20 234 -11 77 -50 184 -67 184 -5 0 -20 -8
-33 -17z"/>
<path d="M6744 7154 c-16 -4 -20 -11 -16 -32 4 -29 -11 -72 -77 -219 -53 -117
-86 -229 -106 -366 -8 -59 -22 -138 -31 -175 -21 -90 -30 -401 -15 -512 13
-96 15 -111 66 -373 82 -430 83 -525 10 -862 -98 -447 -114 -728 -66 -1105 35
-267 102 -491 223 -740 51 -107 78 -173 75 -188 -4 -21 -2 -22 27 -16 85 18
405 148 476 194 25 16 110 60 190 99 80 39 176 92 214 118 65 45 70 52 91 113
46 134 87 199 216 350 90 105 140 242 141 385 0 84 -21 138 -84 216 -70 87
-145 199 -174 263 -59 129 -21 309 100 480 18 26 18 27 -22 134 -51 139 -64
193 -107 452 -67 404 -170 666 -433 1104 -127 211 -203 323 -297 436 -65 78
-162 167 -205 190 -14 7 -35 21 -46 32 -22 19 -106 32 -150 22z"/>
<path d="M6455 7081 c-310 -92 -462 -200 -565 -401 -15 -30 -65 -116 -110
-190 -45 -74 -95 -160 -110 -191 -62 -121 -181 -520 -229 -764 -55 -279 -56
-292 -54 -635 2 -439 21 -590 122 -996 82 -323 157 -534 323 -909 24 -55 79
-158 121 -229 50 -82 75 -135 72 -146 -4 -14 1 -20 25 -25 16 -4 34 -14 39
-24 10 -18 117 -53 217 -71 34 -6 99 -23 146 -38 l85 -27 107 50 c98 46 106
52 90 65 -28 24 -169 326 -208 445 -88 273 -123 487 -142 870 -8 182 14 374
83 706 56 271 57 276 57 444 -1 164 -3 180 -58 475 -70 372 -75 410 -75 580
-1 143 0 153 49 440 37 219 67 314 155 489 61 123 64 131 43 130 -13 0 -95
-22 -183 -48z"/>
<path d="M5770 7076 c0 -29 36 -89 83 -140 52 -55 39 -57 145 29 33 28 61 53
61 57 2 13 -156 58 -222 65 -59 5 -67 4 -67 -11z"/>
<path d="M7421 6991 c-11 -11 -32 -38 -45 -60 -14 -22 -30 -42 -36 -46 -19
-12 -10 -34 38 -102 26 -38 64 -94 83 -125 18 -32 37 -58 41 -58 26 -1 9 207
-26 339 -19 69 -29 78 -55 52z"/>
<path d="M9722 6973 c-5 -10 -12 -38 -16 -63 -4 -24 -18 -59 -31 -76 -28 -36
-32 -54 -12 -54 7 0 44 -18 82 -41 56 -32 87 -43 155 -53 98 -15 239 -71 283
-114 l29 -27 24 30 c13 17 38 54 55 84 26 45 30 61 25 94 -9 57 -22 75 -74
108 -58 37 -147 64 -277 84 -55 8 -127 22 -160 30 -75 18 -73 18 -83 -2z"/>
<path d="M5609 6864 c-4 -30 6 -74 23 -109 37 -71 88 -147 99 -143 5 2 30 40
54 86 l44 82 -22 15 c-66 42 -196 88 -198 69z"/>
<path d="M7798 6770 c-32 -31 -38 -44 -32 -62 8 -26 79 -134 94 -143 14 -9 13
104 -1 144 -9 24 -9 35 0 44 6 6 11 21 11 34 0 35 -27 28 -72 -17z"/>
<path d="M9315 6708 c-58 -21 -132 -68 -193 -124 -63 -56 -186 -229 -211 -294
-7 -19 -17 -44 -22 -55 -5 -11 -21 -65 -35 -120 -24 -88 -27 -120 -28 -265 -1
-144 2 -175 22 -243 33 -114 78 -226 112 -281 35 -54 21 -54 168 2 55 21 92
40 92 49 0 7 -13 39 -29 71 -15 31 -39 100 -52 152 -21 83 -24 118 -24 280 0
207 12 264 82 405 96 190 206 308 360 384 l57 29 -39 11 c-50 14 -220 13 -260
-1z"/>
<path d="M10371 6602 c-13 -25 -40 -67 -60 -92 -21 -25 -53 -67 -71 -95 -45
-67 -325 -408 -421 -512 -108 -117 -292 -260 -486 -377 -35 -21 -63 -44 -63
-51 0 -26 22 -27 48 -2 64 61 152 71 192 20 42 -54 12 -161 -58 -205 l-34 -21
38 -38 c44 -45 48 -46 60 -20 9 19 85 81 236 193 42 32 106 85 141 118 87 81
369 385 418 452 41 54 147 262 169 331 21 67 9 172 -29 255 -46 98 -52 101
-80 44z"/>
<path d="M9607 6591 c-95 -48 -170 -111 -235 -197 -62 -83 -138 -236 -157
-316 -27 -114 -14 -462 18 -495 4 -3 37 15 74 39 37 25 100 65 139 90 38 25
115 84 170 130 95 82 132 121 289 308 39 46 89 105 113 132 23 27 42 52 42 56
0 8 -207 213 -263 260 -52 44 -92 42 -190 -7z"/>
<path d="M10001 6533 c30 -32 65 -75 78 -95 12 -21 26 -38 29 -38 4 0 17 16
30 36 l24 36 -28 29 c-23 24 -155 89 -180 89 -4 0 17 -26 47 -57z"/>
<path d="M5540 6499 c0 -22 49 -89 65 -89 18 0 60 69 49 80 -5 5 -33 12 -61
16 -42 5 -53 4 -53 -7z"/>
<path d="M7608 6474 c-32 -17 -32 -17 27 -120 24 -41 48 -88 55 -104 18 -45
33 -37 25 13 -16 103 -56 227 -72 227 -4 -1 -20 -7 -35 -16z"/>
<path d="M7822 5990 c0 -14 2 -19 5 -12 2 6 2 18 0 25 -3 6 -5 1 -5 -13z"/>
<path d="M10108 5599 c-67 -72 -157 -159 -198 -193 -95 -79 -328 -246 -343
-246 -33 0 21 -24 113 -50 110 -32 188 -38 253 -18 77 23 206 234 266 436 30
100 49 202 38 202 -3 0 -61 -59 -129 -131z"/>
<path d="M9363 5419 c-24 -12 -43 -24 -43 -28 1 -3 12 -19 25 -36 l25 -30 34
35 c19 19 37 45 41 58 5 18 3 22 -17 22 -13 0 -42 -9 -65 -21z"/>
<path d="M9240 5280 c-8 -5 -52 -24 -98 -41 l-83 -32 33 -35 c40 -41 268 -155
359 -178 45 -12 83 -14 129 -10 102 11 142 18 133 26 -4 4 -46 19 -93 33 -109
34 -167 71 -260 168 -74 78 -91 88 -120 69z"/>
<path d="M8820 4675 c0 -5 29 -65 34 -72 3 -4 120 -34 186 -48 96 -20 348 -83
402 -101 71 -23 90 -15 42 18 -42 28 -476 178 -517 178 -13 0 -44 7 -67 15
-43 15 -80 20 -80 10z"/>
<path d="M1093 4647 c-16 -26 -20 -26 607 -72 283 -21 364 -29 685 -70 154
-20 323 -40 375 -45 52 -5 140 -14 195 -20 55 -5 172 -15 260 -20 187 -12 323
-25 350 -33 20 -7 157 -26 370 -52 335 -42 419 -61 431 -98 4 -12 35 -83 69
-157 50 -109 80 -197 153 -455 124 -434 279 -896 429 -1275 68 -173 182 -461
252 -640 71 -179 137 -350 146 -380 10 -30 28 -75 40 -100 12 -25 34 -79 49
-120 40 -112 107 -269 118 -276 15 -9 98 26 98 41 0 8 -25 63 -55 123 -30 61
-66 138 -79 173 -23 62 -44 110 -119 269 -19 41 -57 136 -85 210 -74 198 -163
421 -252 625 -78 181 -152 376 -195 515 -47 150 -164 476 -201 557 -39 85 -69
183 -109 348 -24 99 -60 225 -80 280 -72 200 -94 261 -104 301 -11 42 -12 42
-74 53 -102 17 -368 49 -597 71 -118 12 -276 29 -350 40 -173 25 -372 47 -530
60 -228 18 -453 39 -595 54 -77 9 -223 25 -325 36 -102 10 -243 27 -315 35
-71 9 -202 18 -290 21 -88 2 -184 6 -213 8 -29 1 -55 -1 -59 -7z"/>
<path d="M1161 4458 c29 -72 41 -111 84 -267 45 -163 75 -251 150 -441 31 -80
85 -230 120 -335 86 -255 182 -525 304 -850 108 -286 137 -355 259 -612 l77
-162 40 -9 c22 -5 128 -37 235 -71 107 -34 245 -75 306 -92 62 -16 140 -41
174 -55 34 -14 81 -29 104 -33 97 -20 407 -105 616 -170 124 -38 299 -90 390
-115 91 -24 219 -61 285 -82 251 -77 533 -156 620 -174 50 -10 155 -35 235
-54 171 -41 320 -69 327 -63 2 3 -4 22 -15 44 -11 21 -25 56 -32 78 -18 59
-161 424 -312 800 -36 88 -84 212 -108 275 -24 63 -78 201 -121 305 -131 323
-304 856 -446 1375 -30 110 -61 197 -93 260 -26 52 -53 112 -59 132 -7 21 -17
40 -22 44 -14 8 -168 33 -284 45 -55 5 -154 18 -220 29 -216 34 -417 59 -570
69 -202 15 -604 50 -635 56 -14 3 -63 9 -110 15 -81 9 -231 27 -405 49 -44 6
-156 15 -250 21 -93 6 -253 17 -355 25 -102 8 -213 15 -247 15 l-63 0 21 -52z
m1106 -287 c45 -23 78 -56 92 -93 9 -24 7 -30 -21 -53 -29 -25 -36 -26 -87
-19 -83 11 -114 10 -118 -3 -3 -7 2 -13 10 -13 7 0 31 -15 53 -34 l39 -34 0
-88 c0 -72 -5 -97 -22 -130 -35 -66 -116 -113 -231 -134 -55 -10 -67 -9 -107
9 -109 48 -106 166 4 202 92 30 141 51 136 60 -4 5 -16 9 -28 9 -47 0 -101 23
-142 61 -51 47 -63 85 -41 127 20 39 87 98 133 118 107 45 258 52 330 15z
m783 -116 c20 -10 39 -36 61 -81 29 -62 31 -72 27 -151 -5 -95 9 -89 18 9 8
80 25 111 74 144 53 35 164 52 228 35 71 -19 96 -47 139 -159 8 -21 12 -16 48
57 25 50 48 84 63 90 26 12 102 14 118 3 18 -12 34 -49 34 -78 0 -25 2 -26 38
-20 132 24 179 15 193 -38 12 -44 -12 -87 -70 -130 -28 -21 -51 -41 -51 -46 0
-5 16 -14 36 -20 73 -25 142 -118 117 -159 -18 -30 -73 -59 -122 -66 -40 -5
-57 -2 -97 18 -27 13 -75 35 -107 47 l-58 23 -44 -47 c-49 -51 -85 -59 -130
-30 -21 14 -30 14 -55 4 -37 -15 -94 -7 -155 22 l-45 22 -16 -22 c-11 -16 -25
-22 -50 -22 -35 0 -94 24 -94 38 0 5 -7 17 -15 28 -14 19 -14 19 -30 -3 -18
-26 -77 -47 -109 -39 -12 3 -33 15 -47 27 -19 17 -24 30 -24 70 0 67 -20 65
-98 -11 -72 -70 -98 -75 -142 -30 l-28 29 -29 -24 c-36 -30 -51 -31 -94 -4
-47 29 -64 57 -64 105 0 35 -4 43 -22 48 -48 12 -58 8 -58 -28 0 -41 -28 -78
-77 -101 l-37 -18 -23 27 c-32 37 -30 97 6 216 16 52 37 121 47 152 15 50 22
61 61 84 82 48 130 8 120 -96 -7 -65 -3 -69 46 -51 21 8 26 19 32 63 14 97 27
118 81 118 55 0 82 -46 93 -155 l6 -60 33 51 c35 55 116 139 154 160 31 18 83
17 118 -1z m-476 -594 c36 -6 57 -16 74 -37 14 -16 37 -30 51 -32 38 -5 89
-48 107 -90 9 -20 21 -76 28 -124 l11 -87 39 76 c44 84 92 138 142 159 36 15
92 18 110 6 18 -12 34 -49 34 -79 l0 -28 19 30 c36 60 110 85 144 48 8 -10 17
-34 19 -53 l3 -35 18 32 c21 39 72 63 133 63 38 0 45 -4 59 -30 8 -16 15 -36
15 -45 0 -18 8 -19 40 0 35 20 159 20 188 -1 46 -32 27 -68 -90 -169 -38 -31
-68 -61 -68 -65 0 -5 30 -23 66 -41 77 -39 105 -79 88 -126 -25 -71 -153 -65
-245 10 -81 66 -77 65 -96 37 -9 -14 -30 -38 -46 -54 -24 -24 -33 -28 -65 -23
-58 10 -73 37 -66 116 3 36 12 88 20 115 17 59 11 74 -6 19 -7 -21 -28 -67
-46 -103 -19 -35 -34 -71 -34 -80 0 -9 19 -25 43 -37 69 -35 173 -128 227
-206 52 -74 168 -278 188 -332 24 -64 52 -174 52 -202 0 -104 -319 -392 -577
-522 -62 -31 -101 -27 -206 22 -106 50 -253 167 -316 250 -115 153 -152 215
-186 312 -40 118 -41 122 -18 167 67 138 303 377 493 499 12 8 12 11 2 16 -8
3 -30 19 -49 36 -28 25 -36 28 -44 16 -5 -8 -9 -17 -9 -22 0 -18 -52 -26 -100
-16 -53 11 -70 29 -70 73 0 25 -24 46 -53 46 -9 0 -29 -22 -46 -49 -16 -28
-39 -55 -50 -61 -42 -22 -101 16 -101 65 0 17 -30 55 -44 55 -2 0 -7 -18 -11
-41 -11 -66 -32 -79 -125 -79 -77 0 -81 1 -90 25 -11 30 -1 118 30 249 25 107
25 106 -2 106 -62 1 -68 7 -68 80 0 76 6 100 25 100 6 0 24 11 39 25 27 25 29
25 199 24 95 0 194 -4 221 -8z"/>
<path d="M1987 4077 c-44 -14 -108 -72 -100 -92 6 -17 26 -24 110 -40 l62 -12
-20 28 c-23 33 -24 71 -3 104 19 29 12 31 -49 12z"/>
<path d="M2127 3845 c4 -29 1 -50 -8 -61 -19 -23 -95 -58 -159 -73 -30 -8 -61
-18 -67 -24 -54 -42 70 -32 170 14 61 28 110 148 73 178 -11 10 -13 4 -9 -34z"/>
<path d="M2632 3973 c-5 -10 -12 -40 -15 -68 -7 -63 -26 -102 -52 -109 -35
-10 -100 -6 -128 7 -32 15 -39 39 -27 92 12 53 12 85 0 85 -5 0 -10 -9 -10
-19 0 -10 -22 -88 -50 -172 -27 -84 -50 -157 -50 -163 0 -5 11 1 25 14 16 15
25 34 25 55 0 53 17 65 98 70 98 6 114 -9 107 -95 -5 -64 8 -80 26 -32 51 128
60 163 66 255 6 95 2 114 -15 80z"/>
<path d="M2943 3965 c-12 -8 -58 -66 -101 -128 -44 -61 -89 -122 -99 -133 -16
-17 -17 -23 -6 -30 11 -7 12 -15 2 -42 -6 -18 -9 -35 -7 -37 2 -3 28 20 58 50
49 50 52 55 36 70 -23 23 -21 29 29 93 25 31 45 65 45 75 0 13 6 18 23 15 45
-6 103 -161 65 -173 -7 -2 -31 -7 -53 -11 l-40 -7 44 -8 c63 -12 74 -24 69
-81 -3 -26 -1 -48 3 -48 5 0 9 8 9 18 0 9 5 62 10 117 16 164 15 196 -10 238
-24 40 -43 46 -77 22z"/>
<path d="M3285 3925 c-22 -8 -41 -15 -42 -15 -2 0 -3 -16 -3 -35 0 -20 -7 -70
-16 -112 -25 -123 -33 -213 -17 -213 7 0 16 12 19 28 17 70 53 69 123 -3 52
-54 76 -64 115 -49 28 11 18 30 -44 83 -62 54 -81 91 -60 116 14 16 6 21 -40
27 -53 6 -51 112 3 152 39 28 104 27 129 -4 20 -25 24 -71 8 -101 -15 -27 5
-25 24 3 23 33 20 59 -15 101 -29 35 -34 37 -87 37 -31 -1 -75 -7 -97 -15z"/>
<path d="M3734 3923 c-3 -10 -17 -45 -29 -78 -29 -74 -80 -237 -89 -285 l-7
-35 30 35 c17 19 31 40 31 46 0 21 41 64 61 64 10 0 38 -21 61 -46 68 -74 186
-120 220 -86 18 18 -5 37 -73 62 -33 13 -71 31 -84 42 -47 36 -25 93 48 127
49 23 94 57 86 65 -12 12 -107 -25 -144 -57 -52 -43 -68 -49 -94 -31 -26 19
-26 36 -1 109 11 32 20 64 20 72 0 19 -30 16 -36 -4z"/>
<path d="M3354 3845 c-11 -27 1 -39 19 -21 9 10 17 22 17 27 0 15 -30 10 -36
-6z"/>
<path d="M3586 3794 c-8 -34 -32 -60 -82 -89 l-32 -18 29 -24 c16 -14 33 -22
37 -19 13 8 64 155 59 169 -2 7 -7 -2 -11 -19z"/>
<path d="M2915 3780 c-3 -5 -1 -10 4 -10 6 0 11 5 11 10 0 6 -2 10 -4 10 -3 0
-8 -4 -11 -10z"/>
<path d="M2182 3371 c-28 -17 -9 -46 33 -51 74 -10 78 -24 46 -150 -11 -41
-24 -100 -30 -130 -6 -30 -13 -65 -17 -77 -5 -19 -2 -23 15 -23 14 0 22 8 27
28 3 15 14 54 25 87 10 33 30 99 44 147 37 123 45 131 144 138 84 7 98 11 86
29 -8 13 -353 15 -373 2z"/>
<path d="M2639 3263 c-154 -128 -206 -206 -190 -284 l7 -34 33 53 c35 56 58
64 117 42 18 -7 30 -7 40 0 23 20 54 -23 54 -76 0 -38 3 -45 18 -42 51 10 30
358 -24 375 -5 2 -30 -13 -55 -34z m43 -30 c10 -9 18 -25 18 -35 0 -10 7 -35
15 -54 22 -54 7 -74 -55 -74 -69 0 -100 14 -100 44 0 46 62 135 94 136 5 0 18
-7 28 -17z"/>
<path d="M2446 3254 c-9 -8 -16 -21 -16 -29 0 -7 -3 -21 -7 -31 -4 -10 10 0
30 23 20 22 37 43 37 47 0 12 -29 6 -44 -10z"/>
<path d="M3029 3233 c-28 -33 -89 -139 -89 -153 0 -9 -5 -21 -10 -26 -6 -6
-17 -35 -24 -65 -18 -67 -5 -88 27 -44 54 73 60 77 96 68 26 -7 37 -17 45 -41
6 -17 19 -39 28 -48 16 -17 19 -13 57 67 59 126 61 139 10 84 -58 -63 -72 -69
-110 -49 -31 15 -31 17 -26 72 3 32 12 78 21 105 12 38 13 47 2 47 -8 0 -20
-7 -27 -17z"/>
<path d="M3463 3222 c-14 -23 -73 -228 -73 -255 0 -20 2 -19 28 5 51 49 73 47
140 -15 67 -62 110 -87 144 -86 16 0 6 9 -36 29 -71 35 -116 76 -116 106 0 15
26 46 76 93 83 78 79 91 -12 36 -32 -19 -61 -35 -64 -35 -3 0 -16 9 -28 20
-17 16 -22 32 -22 70 0 53 -15 66 -37 32z"/>
<path d="M2989 2874 l-24 -26 37 18 c20 9 35 21 32 26 -9 14 -19 9 -45 -18z"/>
<path d="M3055 2783 c-16 -8 -75 -45 -130 -82 -154 -102 -415 -374 -415 -432
0 -53 182 -359 257 -433 62 -61 174 -145 231 -173 l54 -26 46 22 c106 52 250
160 375 280 71 69 132 132 137 141 26 49 -81 312 -200 491 -47 71 -132 146
-225 199 -59 34 -86 36 -130 13z m130 -230 c70 -25 122 -81 177 -193 88 -178
97 -231 49 -297 -33 -46 -129 -112 -250 -173 -74 -37 -91 -42 -136 -38 -43 4
-62 12 -114 53 -110 84 -208 243 -218 352 l-5 59 88 71 c219 173 297 205 409
166z"/>
<path d="M3049 2452 c-63 -33 -146 -90 -206 -141 -49 -42 -54 -71 -23 -135 27
-57 128 -181 171 -212 l36 -25 90 45 c49 26 116 68 149 94 73 59 78 85 38 181
-48 117 -92 179 -146 207 -37 19 -48 18 -109 -14z"/>
<path d="M9000 4270 c12 -23 14 -24 135 -65 44 -15 109 -39 145 -52 109 -41
175 -61 184 -56 14 9 -45 41 -144 77 -52 19 -134 50 -182 69 -48 20 -101 38
-118 42 -30 7 -31 6 -20 -15z"/>
<path d="M5265 3952 c-112 -72 -251 -195 -311 -276 -26 -33 -64 -98 -86 -143
-21 -46 -43 -83 -47 -83 -23 0 -16 -38 23 -122 40 -86 63 -154 129 -373 14
-44 38 -114 55 -155 17 -41 46 -115 63 -165 18 -49 63 -162 101 -250 38 -88
128 -306 199 -485 72 -179 166 -405 210 -502 43 -98 79 -181 79 -185 0 -16 74
-163 82 -163 5 0 25 11 46 24 20 14 98 49 172 79 241 98 322 133 515 224 159
75 474 230 533 263 10 5 52 25 95 44 42 19 77 37 77 40 0 4 -17 4 -37 1 -21
-3 -123 -17 -228 -31 -104 -14 -228 -32 -275 -40 -117 -21 -296 -79 -404 -130
-50 -23 -120 -50 -156 -58 -283 -66 -314 -69 -331 -32 -7 15 -9 48 -5 89 8 68
18 88 117 234 46 68 93 153 87 157 -14 10 -79 29 -161 46 -54 12 -164 43 -245
69 -81 27 -163 52 -182 56 -63 13 -92 64 -55 95 11 9 13 16 5 24 -40 40 46
179 162 259 60 42 212 110 336 151 45 15 82 32 82 38 0 5 -13 30 -30 55 -16
24 -30 46 -30 48 0 2 -13 26 -28 52 -30 50 -190 406 -240 535 -31 78 -112 323
-132 398 -14 53 -26 70 -50 70 -31 0 -114 -74 -139 -124 -21 -43 -23 -57 -17
-121 l7 -73 -51 -61 c-28 -33 -55 -73 -61 -87 -5 -15 -9 -92 -7 -173 l2 -146
-32 -55 c-17 -30 -32 -65 -32 -76 0 -12 -9 -32 -19 -45 l-19 -24 -11 28 c-24
63 -24 100 3 157 24 51 26 66 26 197 0 78 4 152 9 165 5 13 32 51 60 84 l51
59 -3 80 c-2 68 2 88 22 129 39 80 109 138 202 169 15 5 15 12 4 59 -6 31 -18
54 -26 56 -8 1 -54 -24 -104 -56z"/>
<path d="M10712 3838 c51 -136 195 -611 248 -813 18 -66 38 -142 46 -170 44
-158 72 -334 83 -518 4 -75 9 -138 12 -140 2 -3 58 -7 125 -11 l121 -7 -11 52
c-10 51 -10 52 22 80 22 19 43 29 65 29 69 0 252 -55 508 -153 97 -37 281
-119 549 -244 99 -46 129 -59 163 -67 22 -5 27 -3 27 14 0 31 -67 202 -111
282 -21 40 -68 129 -103 198 -112 219 -184 316 -426 575 -205 219 -238 249
-440 394 -352 254 -421 296 -801 488 -52 25 -84 30 -77 11z m506 -444 c61 -42
147 -107 190 -143 42 -37 111 -93 152 -126 301 -237 569 -506 728 -734 56 -80
64 -112 31 -135 -34 -23 -59 -6 -129 91 -185 257 -333 404 -755 753 -193 159
-217 178 -322 248 -95 64 -112 89 -80 121 22 22 69 3 185 -75z"/>
<path d="M9136 3726 c4 -11 124 -49 124 -39 0 6 -100 53 -114 53 -9 0 -13 -6
-10 -14z"/>
<path d="M8872 3316 c-34 -13 -80 -35 -102 -50 -53 -35 -192 -157 -186 -163 3
-3 36 2 73 10 37 9 101 21 141 27 86 12 120 28 156 70 25 30 54 105 44 115
-16 16 -70 12 -126 -9z"/>
<path d="M9115 3308 c-3 -7 -12 -33 -20 -58 -40 -114 -116 -169 -274 -196 -47
-9 -117 -25 -155 -36 -59 -18 -85 -20 -177 -15 -60 4 -155 14 -211 23 -210 33
-351 4 -487 -100 -90 -69 -559 -314 -691 -362 -36 -12 -112 -41 -170 -64 -58
-23 -127 -48 -155 -57 -135 -40 -397 -203 -507 -315 -69 -70 -89 -99 -93 -135
-2 -16 -5 -37 -8 -48 -6 -29 2 -37 20 -19 10 9 18 12 22 6 3 -6 49 22 101 62
132 100 266 184 396 250 62 31 115 56 118 56 3 0 87 38 186 85 179 85 325 141
660 255 313 106 335 115 338 141 7 58 12 66 67 93 73 36 219 83 302 97 74 13
249 7 359 -12 70 -12 108 -37 102 -67 -3 -14 -13 -16 -63 -12 -33 3 -139 5
-235 5 -171 0 -178 -1 -285 -34 -148 -46 -146 -44 -133 -82 16 -46 -14 -71
-141 -114 -58 -20 -151 -54 -206 -76 -55 -21 -179 -65 -275 -98 -238 -82 -230
-79 -365 -145 -66 -32 -140 -66 -165 -76 -263 -105 -524 -268 -701 -437 -82
-79 -109 -88 -134 -49 -13 19 -14 29 -5 45 9 17 8 21 -5 21 -13 0 -19 12 -16
33 0 4 -10 7 -23 7 -19 0 -33 -13 -62 -62 -21 -35 -64 -100 -96 -145 -60 -85
-82 -128 -74 -148 3 -9 36 -6 124 11 94 18 147 35 239 77 224 103 361 138 708
182 110 14 245 32 300 40 55 8 134 18 175 21 41 4 95 15 120 24 60 23 294 76
400 90 47 6 136 20 198 31 248 42 815 8 1282 -77 269 -48 421 -60 471 -34 80
41 127 90 172 177 96 188 112 319 55 466 -33 87 -114 240 -155 295 -82 109
-457 370 -615 427 -189 69 -206 73 -213 53z"/>
<path d="M5780 2512 c-81 -36 -204 -100 -244 -128 -37 -26 -128 -118 -136
-139 -23 -63 -25 -60 42 -79 35 -9 99 -30 143 -46 71 -25 367 -105 436 -117
22 -4 33 4 77 64 61 82 151 169 251 243 86 63 85 68 -36 94 -131 28 -223 56
-333 99 -58 23 -107 43 -110 44 -3 1 -43 -15 -90 -35z"/>
<path d="M7840 1860 c-142 -24 -285 -73 -442 -151 -90 -44 -201 -96 -248 -116
-47 -19 -172 -80 -278 -134 -106 -55 -209 -106 -230 -113 -20 -8 -93 -41 -162
-74 -296 -142 -579 -260 -645 -268 -42 -6 -46 -9 -41 -30 11 -42 25 -74 34
-74 42 0 451 166 672 272 102 49 239 112 305 140 66 28 199 90 295 138 96 48
252 122 345 164 198 90 463 222 485 242 12 12 10 14 -15 13 -17 -1 -50 -5 -75
-9z"/>
</g>
</svg>
