<svg width="169" height="48" viewBox="0 0 169 48" fill="none" xmlns="http://www.w3.org/2000/svg">
<path fill-rule="evenodd" clip-rule="evenodd" d="M104.011 9.80664H104.326H107.625H107.941V10.1174V26.5705V30.5149V35.3874V35.6981H107.625H104.326H104.011V35.3874V10.1174V9.80664ZM39.8823 32.1785V18.5884H44.0648V15.0563H39.5414C39.8077 14.7288 40.0206 14.3626 40.1726 13.9707C40.4565 13.2601 40.6081 12.3507 40.5933 11.1284V9.80673H36.8064V11.174C36.8315 11.95 36.6722 12.7211 36.3414 13.4259C35.847 14.4244 34.793 15.5286 32.5018 16.0589L32.2578 16.1169V18.5884H35.9143V33.1066C35.9166 33.7935 36.1944 34.4515 36.6876 34.9375C37.1806 35.4233 37.8487 35.6976 38.5463 35.7003H44.1258V32.1785H39.8843H39.8823ZM72.1557 18.4848C73.6831 16.3386 75.7113 15.0832 78.1644 15.0832H80.1253V18.837H77.7331C76.0584 18.837 74.7119 19.3736 73.7589 20.5047C72.8058 21.6358 72.2357 23.4008 72.2357 25.9137V35.7003H68.2257V15.0832H72.1557V18.4848ZM157.71 15.0832H161.546L161.999 15.0977L161.834 15.512L151.82 41.0762L151.576 40.983L151.604 40.9954L151.815 41.0762C151.532 41.7379 151.06 42.3048 150.457 42.7091C149.855 43.1133 149.146 43.3376 148.418 43.355H143.978V39.8705H148.281L150.081 35.3853L142.232 15.4975L142.065 15.0832H146.484L146.56 15.2904L152.082 30.4797L157.636 15.2904L157.71 15.0832ZM60.2583 15.0832H60.5739H64.2262V35.7065H60.454V33.1625C58.9644 35.2052 56.7743 36.1705 54.0919 36.1705C51.361 36.1705 49.4948 35.3833 48.3503 34.0119C47.2059 32.6404 46.7851 30.7263 46.7851 28.549V15.0832H50.7551V28.9281C50.7551 30.0799 51.1232 31.0017 51.767 31.6336C52.4108 32.2655 53.3555 32.6404 54.5631 32.6404C56.5113 32.6404 57.9166 32.0044 58.8487 30.9603C59.7808 29.9162 60.2583 28.4309 60.2583 26.6844V15.0832ZM132.028 14.6191C129.059 14.6191 126.613 15.6963 124.913 17.6023C123.213 19.5082 122.285 22.2013 122.285 25.4103C122.285 28.6193 123.246 31.3312 124.974 33.2184C126.701 35.1056 129.181 36.1643 132.146 36.1643C134.504 36.1643 136.53 35.4972 138.114 34.2687C139.699 33.0402 140.82 31.269 141.405 29.0896L141.51 28.698H137.423L137.347 28.9052C136.446 31.3477 134.593 32.6839 132.146 32.6839C130.387 32.6839 129.032 32.0334 128.068 30.9437C127.157 29.9079 126.585 28.4701 126.375 26.7693H141.539L141.572 26.4937C141.605 26.135 141.618 25.7746 141.612 25.4145C141.612 22.2096 140.723 19.5103 139.067 17.6084C137.411 15.7067 134.996 14.6191 132.028 14.6191ZM126.514 23.2039C126.793 21.7539 127.374 20.4963 128.235 19.6014C128.722 19.0989 129.31 18.7025 129.963 18.4377C130.615 18.173 131.316 18.0457 132.022 18.0642C132.693 18.0478 133.36 18.167 133.983 18.4148C134.605 18.6624 135.169 19.0331 135.64 19.5041C136.503 20.3721 137.113 21.6254 137.416 23.2039H126.514ZM93.1272 14.6191C90.4448 14.6191 88.2547 15.5845 86.7651 17.6272V15.0831H82.9928V35.7002H86.9608V24.0989C86.9608 22.3526 87.4383 20.8672 88.3704 19.821C89.3023 18.7748 90.7078 18.1429 92.656 18.1429C93.8636 18.1429 94.8082 18.5179 95.4521 19.1497C96.0959 19.7816 96.464 20.7035 96.464 21.8553V35.7023H100.434V22.2366C100.434 20.0613 100.013 18.1472 98.8687 16.7757C97.7243 15.4042 95.8581 14.6191 93.1272 14.6191ZM123.47 15.1363L113.048 25.4037L123.463 35.6655L118.203 35.6545L110.595 28.1588C109.854 27.4282 109.437 26.4375 109.437 25.4046C109.437 24.3715 109.854 23.381 110.595 22.6504L118.222 15.1363H123.47Z" fill="white"/>
<path fill-rule="evenodd" clip-rule="evenodd" d="M19.5784 14.6005C19.5784 17.2482 17.4019 19.3944 14.7171 19.3944C12.0323 19.3944 9.8558 17.2482 9.8558 14.6005C9.8558 11.9529 12.0323 9.80664 14.7171 9.80664C17.4019 9.80664 19.5784 11.9529 19.5784 14.6005ZM22.4374 36.6524L15.5176 21.7104C15.4473 21.5597 15.3347 21.4321 15.1931 21.3425C15.0515 21.253 14.8868 21.2055 14.7187 21.2055C14.5505 21.2055 14.3858 21.253 14.2442 21.3425C14.1026 21.4321 13.99 21.5597 13.9197 21.7104L7 36.6524H22.4374Z" fill="white"/>
</svg>
