<svg width="293" height="80" viewBox="0 0 293 80" fill="none" xmlns="http://www.w3.org/2000/svg">
<g clip-path="url(#clip0_15_108)">
<path d="M218.265 27H205.281C200.292 27 196.25 31.0526 196.25 36.0561V43.9438C196.25 48.9474 200.292 53 205.281 53H218.573V52.9865C223.418 52.8234 227.298 48.8432 227.298 43.9439V36.0561C227.298 31.0526 223.256 27 218.265 27ZM216.865 48.6803H206.681V31.3198H216.865V48.6803ZM74.0345 27H61.0507C56.0604 27 52.0185 31.0526 52.0185 36.0561V43.9438C52.0185 48.9474 56.0604 53 61.0507 53H74.3416V52.9865C79.1875 52.8234 83.0667 48.8432 83.0667 43.9439V36.0561C83.0667 31.0526 79.0248 27 74.0345 27ZM72.6345 48.6803H62.4507V31.3198H72.6345V48.6803ZM146.703 31.528H146.708L139.166 44.6231V27H133.941C130.712 27 127.731 28.7252 126.119 31.528L115.19 50.5051L110.38 42.1553C113.835 42.1146 116.626 39.2936 116.626 35.8206V33.3392C116.626 29.8391 113.794 27 110.303 27H85.5778V53H96.0099V42.1599H98.3402L104.581 53H118.572L128.734 35.3497V53H139.166V52.9909L149.282 35.4222V53H159.714V27H154.525C151.296 27 148.315 28.7252 146.703 31.528ZM106.194 37.8401H96.0099V31.3198H106.194V37.8401ZM183.242 27H193.675V53H183.242V42.1599H173.059V53H162.627V27H173.059V37.8401H183.242V27ZM240.304 48.6803H253.772V53H238.904C233.913 53 229.872 48.9474 229.872 43.9438V27H240.304V48.6803ZM266.885 31.3197V37.8401H281.161V42.1599H266.885V48.6803H284.922V53H256.453V27H284.922V31.3198L266.885 31.3197ZM53.965 27L41.5998 48.472C39.9876 51.2748 37.007 53 33.7779 53H28.5528V35.3769L21.0109 48.472C19.3987 51.2748 16.418 53 13.189 53H8V27H18.4367V44.5778L28.5528 27.009V27H38.985V44.6503L49.1462 27H53.965Z" fill="white"/>
</g>
<defs>
<clipPath id="clip0_15_108">
<rect width="276.922" height="26" fill="white" transform="translate(8 27)"/>
</clipPath>
</defs>
</svg>
